G04 #@! TF.FileFunction,Copper,L2,Bot,Signal*
%FSLAX46Y46*%
G04 Gerber Fmt 4.6, Leading zero omitted, Abs format (unit mm)*
G04 Created by KiCad (PCBNEW 4.0.2-stable) date 01.03.2017 20:49:35*
%MOMM*%
G01*
G04 APERTURE LIST*
%ADD10C,0.100000*%
%ADD11R,2.032000X1.727200*%
%ADD12O,2.032000X1.727200*%
%ADD13R,1.727200X2.032000*%
%ADD14O,1.727200X2.032000*%
%ADD15R,2.032000X2.032000*%
%ADD16O,2.032000X2.032000*%
%ADD17R,2.235200X2.235200*%
%ADD18R,0.800100X0.800100*%
%ADD19R,1.727200X1.727200*%
%ADD20O,1.727200X1.727200*%
%ADD21C,1.143000*%
%ADD22C,2.000000*%
%ADD23R,0.280000X0.430000*%
%ADD24R,1.200000X0.900000*%
%ADD25R,1.200000X0.750000*%
%ADD26R,0.750000X1.200000*%
%ADD27R,0.900000X1.200000*%
%ADD28R,1.800000X1.800000*%
%ADD29O,1.800000X1.800000*%
%ADD30C,0.600000*%
%ADD31C,0.250000*%
G04 APERTURE END LIST*
D10*
D11*
X107188000Y-71120000D03*
D12*
X107188000Y-73660000D03*
X107188000Y-76200000D03*
X107188000Y-78740000D03*
X107188000Y-81280000D03*
X107188000Y-83820000D03*
X107188000Y-86360000D03*
X107188000Y-88900000D03*
D11*
X107188000Y-98552000D03*
D12*
X107188000Y-96012000D03*
X107188000Y-93472000D03*
D13*
X137922000Y-112522000D03*
D14*
X140462000Y-112522000D03*
X143002000Y-112522000D03*
X145542000Y-112522000D03*
X148082000Y-112522000D03*
X150622000Y-112522000D03*
D13*
X116332000Y-112522000D03*
D14*
X118872000Y-112522000D03*
X121412000Y-112522000D03*
X123952000Y-112522000D03*
X126492000Y-112522000D03*
X129032000Y-112522000D03*
X131572000Y-112522000D03*
X134112000Y-112522000D03*
D13*
X134620000Y-67310000D03*
D14*
X132080000Y-67310000D03*
X129540000Y-67310000D03*
X127000000Y-67310000D03*
X124460000Y-67310000D03*
D15*
X109728000Y-112522000D03*
D16*
X112268000Y-112522000D03*
D17*
X140462000Y-108966000D03*
X150368000Y-109474000D03*
D18*
X134427000Y-74152760D03*
X132527000Y-74152760D03*
X133477000Y-72153780D03*
X139888000Y-74152760D03*
X137988000Y-74152760D03*
X138938000Y-72153780D03*
X129474000Y-74152760D03*
X127574000Y-74152760D03*
X128524000Y-72153780D03*
D19*
X151638000Y-69596000D03*
D20*
X151638000Y-72136000D03*
X149098000Y-69596000D03*
X149098000Y-72136000D03*
X146558000Y-69596000D03*
X146558000Y-72136000D03*
D10*
G36*
X127604757Y-93091464D02*
X127993666Y-92702555D01*
X129125037Y-93833926D01*
X128736128Y-94222835D01*
X127604757Y-93091464D01*
X127604757Y-93091464D01*
G37*
G36*
X128170443Y-92525779D02*
X128559352Y-92136870D01*
X129690723Y-93268241D01*
X129301814Y-93657150D01*
X128170443Y-92525779D01*
X128170443Y-92525779D01*
G37*
G36*
X128736128Y-91960093D02*
X129125037Y-91571184D01*
X130256408Y-92702555D01*
X129867499Y-93091464D01*
X128736128Y-91960093D01*
X128736128Y-91960093D01*
G37*
G36*
X129301813Y-91394408D02*
X129690722Y-91005499D01*
X130822093Y-92136870D01*
X130433184Y-92525779D01*
X129301813Y-91394408D01*
X129301813Y-91394408D01*
G37*
G36*
X129867499Y-90828722D02*
X130256408Y-90439813D01*
X131387779Y-91571184D01*
X130998870Y-91960093D01*
X129867499Y-90828722D01*
X129867499Y-90828722D01*
G37*
G36*
X130433184Y-90263037D02*
X130822093Y-89874128D01*
X131953464Y-91005499D01*
X131564555Y-91394408D01*
X130433184Y-90263037D01*
X130433184Y-90263037D01*
G37*
G36*
X130998870Y-89697352D02*
X131387779Y-89308443D01*
X132519150Y-90439814D01*
X132130241Y-90828723D01*
X130998870Y-89697352D01*
X130998870Y-89697352D01*
G37*
G36*
X131564555Y-89131666D02*
X131953464Y-88742757D01*
X133084835Y-89874128D01*
X132695926Y-90263037D01*
X131564555Y-89131666D01*
X131564555Y-89131666D01*
G37*
G36*
X134746536Y-88742757D02*
X135135445Y-89131666D01*
X134004074Y-90263037D01*
X133615165Y-89874128D01*
X134746536Y-88742757D01*
X134746536Y-88742757D01*
G37*
G36*
X135312221Y-89308443D02*
X135701130Y-89697352D01*
X134569759Y-90828723D01*
X134180850Y-90439814D01*
X135312221Y-89308443D01*
X135312221Y-89308443D01*
G37*
G36*
X135877907Y-89874128D02*
X136266816Y-90263037D01*
X135135445Y-91394408D01*
X134746536Y-91005499D01*
X135877907Y-89874128D01*
X135877907Y-89874128D01*
G37*
G36*
X136443592Y-90439813D02*
X136832501Y-90828722D01*
X135701130Y-91960093D01*
X135312221Y-91571184D01*
X136443592Y-90439813D01*
X136443592Y-90439813D01*
G37*
G36*
X137009278Y-91005499D02*
X137398187Y-91394408D01*
X136266816Y-92525779D01*
X135877907Y-92136870D01*
X137009278Y-91005499D01*
X137009278Y-91005499D01*
G37*
G36*
X137574963Y-91571184D02*
X137963872Y-91960093D01*
X136832501Y-93091464D01*
X136443592Y-92702555D01*
X137574963Y-91571184D01*
X137574963Y-91571184D01*
G37*
G36*
X138140648Y-92136870D02*
X138529557Y-92525779D01*
X137398186Y-93657150D01*
X137009277Y-93268241D01*
X138140648Y-92136870D01*
X138140648Y-92136870D01*
G37*
G36*
X138706334Y-92702555D02*
X139095243Y-93091464D01*
X137963872Y-94222835D01*
X137574963Y-93833926D01*
X138706334Y-92702555D01*
X138706334Y-92702555D01*
G37*
G36*
X137574963Y-95142074D02*
X137963872Y-94753165D01*
X139095243Y-95884536D01*
X138706334Y-96273445D01*
X137574963Y-95142074D01*
X137574963Y-95142074D01*
G37*
G36*
X137009277Y-95707759D02*
X137398186Y-95318850D01*
X138529557Y-96450221D01*
X138140648Y-96839130D01*
X137009277Y-95707759D01*
X137009277Y-95707759D01*
G37*
G36*
X136443592Y-96273445D02*
X136832501Y-95884536D01*
X137963872Y-97015907D01*
X137574963Y-97404816D01*
X136443592Y-96273445D01*
X136443592Y-96273445D01*
G37*
G36*
X135877907Y-96839130D02*
X136266816Y-96450221D01*
X137398187Y-97581592D01*
X137009278Y-97970501D01*
X135877907Y-96839130D01*
X135877907Y-96839130D01*
G37*
G36*
X135312221Y-97404816D02*
X135701130Y-97015907D01*
X136832501Y-98147278D01*
X136443592Y-98536187D01*
X135312221Y-97404816D01*
X135312221Y-97404816D01*
G37*
G36*
X134746536Y-97970501D02*
X135135445Y-97581592D01*
X136266816Y-98712963D01*
X135877907Y-99101872D01*
X134746536Y-97970501D01*
X134746536Y-97970501D01*
G37*
G36*
X134180850Y-98536186D02*
X134569759Y-98147277D01*
X135701130Y-99278648D01*
X135312221Y-99667557D01*
X134180850Y-98536186D01*
X134180850Y-98536186D01*
G37*
G36*
X133615165Y-99101872D02*
X134004074Y-98712963D01*
X135135445Y-99844334D01*
X134746536Y-100233243D01*
X133615165Y-99101872D01*
X133615165Y-99101872D01*
G37*
G36*
X132695926Y-98712963D02*
X133084835Y-99101872D01*
X131953464Y-100233243D01*
X131564555Y-99844334D01*
X132695926Y-98712963D01*
X132695926Y-98712963D01*
G37*
G36*
X132130241Y-98147277D02*
X132519150Y-98536186D01*
X131387779Y-99667557D01*
X130998870Y-99278648D01*
X132130241Y-98147277D01*
X132130241Y-98147277D01*
G37*
G36*
X131564555Y-97581592D02*
X131953464Y-97970501D01*
X130822093Y-99101872D01*
X130433184Y-98712963D01*
X131564555Y-97581592D01*
X131564555Y-97581592D01*
G37*
G36*
X130998870Y-97015907D02*
X131387779Y-97404816D01*
X130256408Y-98536187D01*
X129867499Y-98147278D01*
X130998870Y-97015907D01*
X130998870Y-97015907D01*
G37*
G36*
X130433184Y-96450221D02*
X130822093Y-96839130D01*
X129690722Y-97970501D01*
X129301813Y-97581592D01*
X130433184Y-96450221D01*
X130433184Y-96450221D01*
G37*
G36*
X129867499Y-95884536D02*
X130256408Y-96273445D01*
X129125037Y-97404816D01*
X128736128Y-97015907D01*
X129867499Y-95884536D01*
X129867499Y-95884536D01*
G37*
G36*
X129301814Y-95318850D02*
X129690723Y-95707759D01*
X128559352Y-96839130D01*
X128170443Y-96450221D01*
X129301814Y-95318850D01*
X129301814Y-95318850D01*
G37*
G36*
X128736128Y-94753165D02*
X129125037Y-95142074D01*
X127993666Y-96273445D01*
X127604757Y-95884536D01*
X128736128Y-94753165D01*
X128736128Y-94753165D01*
G37*
D21*
X128905000Y-102870000D03*
X126873000Y-78867000D03*
X137541000Y-76581000D03*
X131699000Y-78867000D03*
X126873000Y-76708000D03*
X131699000Y-76708000D03*
D22*
X146812000Y-106354000D03*
X146812000Y-101854000D03*
X153312000Y-106354000D03*
X153312000Y-101854000D03*
X146812000Y-91368000D03*
X146812000Y-86868000D03*
X153312000Y-91368000D03*
X153312000Y-86868000D03*
X146812000Y-98988000D03*
X146812000Y-94488000D03*
X153312000Y-98988000D03*
X153312000Y-94488000D03*
X146812000Y-83748000D03*
X146812000Y-79248000D03*
X153312000Y-83748000D03*
X153312000Y-79248000D03*
D23*
X121164000Y-81280000D03*
X120644000Y-81280000D03*
X121164000Y-83820000D03*
X120644000Y-83820000D03*
X120644000Y-78486000D03*
X121164000Y-78486000D03*
X120644000Y-76200000D03*
X121164000Y-76200000D03*
D24*
X116502000Y-86360000D03*
X118702000Y-86360000D03*
X116502000Y-83820000D03*
X118702000Y-83820000D03*
X116502000Y-81280000D03*
X118702000Y-81280000D03*
X116502000Y-78486000D03*
X118702000Y-78486000D03*
X116502000Y-76200000D03*
X118702000Y-76200000D03*
X116502000Y-73660000D03*
X118702000Y-73660000D03*
X116502000Y-71120000D03*
X118702000Y-71120000D03*
D25*
X110302000Y-86360000D03*
X112202000Y-86360000D03*
X110302000Y-83820000D03*
X112202000Y-83820000D03*
X110302000Y-81280000D03*
X112202000Y-81280000D03*
X110302000Y-78740000D03*
X112202000Y-78740000D03*
X110302000Y-76200000D03*
X112202000Y-76200000D03*
X110302000Y-73660000D03*
X112202000Y-73660000D03*
X110302000Y-71120000D03*
X112202000Y-71120000D03*
X124394000Y-71120000D03*
X122494000Y-71120000D03*
X137988000Y-69850000D03*
X139888000Y-69850000D03*
D26*
X142875000Y-69281000D03*
X142875000Y-71181000D03*
D25*
X124394000Y-73660000D03*
X122494000Y-73660000D03*
D27*
X131572000Y-109812000D03*
X131572000Y-107612000D03*
X134493000Y-78824000D03*
X134493000Y-76624000D03*
X139954000Y-78824000D03*
X139954000Y-76624000D03*
X129540000Y-78824000D03*
X129540000Y-76624000D03*
D28*
X116586000Y-105156000D03*
D29*
X114046000Y-105156000D03*
X111506000Y-105156000D03*
D30*
X136137800Y-87115500D03*
X134645900Y-84708500D03*
X135446300Y-84713600D03*
X123365000Y-80813300D03*
X138911700Y-94978000D03*
X131488500Y-94358100D03*
X130574300Y-77803000D03*
X113359500Y-76201600D03*
X128241000Y-90870500D03*
X126365000Y-92075000D03*
X126573700Y-95020900D03*
X122422900Y-103378500D03*
X129656800Y-81931800D03*
X133345100Y-83685000D03*
X129331600Y-90245100D03*
X129649500Y-98684200D03*
X135021500Y-95339000D03*
X135821900Y-95788400D03*
X136622200Y-95339000D03*
X127616900Y-94864000D03*
X126390700Y-93375900D03*
X130540500Y-93184900D03*
X133904300Y-98058900D03*
D31*
X136638000Y-91765600D02*
X137433700Y-90969900D01*
X137433700Y-88411400D02*
X137433700Y-90969900D01*
X136137800Y-87115500D02*
X137433700Y-88411400D01*
X137203700Y-92331300D02*
X137999400Y-91535600D01*
X134645900Y-84800400D02*
X134645900Y-84708500D01*
X136098300Y-86252800D02*
X134645900Y-84800400D01*
X136184400Y-86252800D02*
X136098300Y-86252800D01*
X137999400Y-88067800D02*
X136184400Y-86252800D01*
X137999400Y-91535600D02*
X137999400Y-88067800D01*
X138335100Y-93462700D02*
X139130800Y-92667000D01*
X135446300Y-84777600D02*
X135446300Y-84713600D01*
X138906100Y-88237400D02*
X135446300Y-84777600D01*
X138906100Y-92442400D02*
X138906100Y-88237400D01*
X139130800Y-92667000D02*
X138906100Y-92442400D01*
X131759000Y-98907400D02*
X130963200Y-99703200D01*
X130906600Y-99759800D02*
X130963200Y-99703200D01*
X127824000Y-99759800D02*
X130906600Y-99759800D01*
X123365000Y-95300800D02*
X127824000Y-99759800D01*
X123365000Y-80813300D02*
X123365000Y-95300800D01*
X138870400Y-94978000D02*
X138911700Y-94978000D01*
X138335100Y-95513300D02*
X138870400Y-94978000D01*
X146812000Y-88628000D02*
X138565200Y-96874800D01*
X137769400Y-96079000D02*
X138565200Y-96874800D01*
X146812000Y-86868000D02*
X146812000Y-88628000D01*
X135506700Y-98341700D02*
X134711000Y-97546000D01*
X134676400Y-97546000D02*
X134711000Y-97546000D01*
X131488500Y-94358100D02*
X134676400Y-97546000D01*
X115613000Y-72009000D02*
X116502000Y-71120000D01*
X110495000Y-72009000D02*
X115613000Y-72009000D01*
X110302000Y-71816000D02*
X110495000Y-72009000D01*
X110302000Y-71120000D02*
X110302000Y-71816000D01*
X106680000Y-71120000D02*
X107188000Y-71120000D01*
X107188000Y-71120000D02*
X110302000Y-71120000D01*
X115613000Y-72771000D02*
X116502000Y-73660000D01*
X110617000Y-72771000D02*
X115613000Y-72771000D01*
X110302000Y-73086000D02*
X110617000Y-72771000D01*
X110302000Y-73660000D02*
X110302000Y-73086000D01*
X116502000Y-73449000D02*
X116502000Y-73660000D01*
X106680000Y-73660000D02*
X107188000Y-73660000D01*
X107188000Y-73660000D02*
X110302000Y-73660000D01*
X115613000Y-77089000D02*
X116502000Y-76200000D01*
X110490000Y-77089000D02*
X115613000Y-77089000D01*
X110302000Y-76901000D02*
X110490000Y-77089000D01*
X110302000Y-76200000D02*
X110302000Y-76901000D01*
X106680000Y-76200000D02*
X107188000Y-76200000D01*
X107188000Y-76200000D02*
X110302000Y-76200000D01*
X115740000Y-77724000D02*
X116502000Y-78486000D01*
X110744000Y-77724000D02*
X115740000Y-77724000D01*
X110302000Y-78166000D02*
X110744000Y-77724000D01*
X110302000Y-78740000D02*
X110302000Y-78166000D01*
X107188000Y-78740000D02*
X110302000Y-78740000D01*
X106680000Y-78740000D02*
X107188000Y-78740000D01*
X115613000Y-82169000D02*
X116502000Y-81280000D01*
X110617000Y-82169000D02*
X115613000Y-82169000D01*
X110302000Y-81854000D02*
X110617000Y-82169000D01*
X110302000Y-81280000D02*
X110302000Y-81854000D01*
X110302000Y-81280000D02*
X107188000Y-81280000D01*
X107188000Y-81280000D02*
X106680000Y-81280000D01*
X115740000Y-83058000D02*
X116502000Y-83820000D01*
X110617000Y-83058000D02*
X115740000Y-83058000D01*
X110302000Y-83373000D02*
X110617000Y-83058000D01*
X110302000Y-83820000D02*
X110302000Y-83373000D01*
X110302000Y-83820000D02*
X107188000Y-83820000D01*
X107188000Y-83820000D02*
X106680000Y-83820000D01*
X115740000Y-87122000D02*
X116502000Y-86360000D01*
X110363000Y-87122000D02*
X115740000Y-87122000D01*
X110302000Y-87061000D02*
X110363000Y-87122000D01*
X110302000Y-86360000D02*
X110302000Y-87061000D01*
X110302000Y-86360000D02*
X107188000Y-86360000D01*
X107188000Y-86360000D02*
X106680000Y-86360000D01*
X136638047Y-97210361D02*
X136638047Y-97268047D01*
X136638047Y-97268047D02*
X138049000Y-98679000D01*
X138049000Y-98679000D02*
X138049000Y-98806000D01*
X138049000Y-98806000D02*
X136906000Y-99949000D01*
X136906000Y-99949000D02*
X136906000Y-111506000D01*
X136906000Y-111506000D02*
X137922000Y-112522000D01*
X141544000Y-69850000D02*
X142875000Y-71181000D01*
X139888000Y-69850000D02*
X141544000Y-69850000D01*
X122494000Y-72324000D02*
X122494000Y-71120000D01*
X122428000Y-72390000D02*
X122494000Y-72324000D01*
X117602000Y-72390000D02*
X122428000Y-72390000D01*
X112202000Y-73660000D02*
X112202000Y-74864000D01*
X112202000Y-74864000D02*
X112202000Y-76200000D01*
X112268000Y-74930000D02*
X112202000Y-74864000D01*
X117602000Y-74930000D02*
X112268000Y-74930000D01*
X112202000Y-74864000D02*
X112202000Y-73660000D01*
X112202000Y-78740000D02*
X112202000Y-80010000D01*
X112202000Y-80010000D02*
X112202000Y-81280000D01*
X117602000Y-74930000D02*
X117602000Y-79883000D01*
X112202000Y-83820000D02*
X112202000Y-85090000D01*
X112202000Y-85090000D02*
X112202000Y-86360000D01*
X122494000Y-71120000D02*
X122494000Y-72324000D01*
X117602000Y-72390000D02*
X117602000Y-74930000D01*
X122494000Y-72324000D02*
X122494000Y-73660000D01*
X117602000Y-79883000D02*
X117602000Y-79946500D01*
X117602000Y-79946500D02*
X117602000Y-80010000D01*
X117602000Y-79883000D02*
X117602000Y-79946500D01*
X117602000Y-79946500D02*
X117602000Y-80010000D01*
X107188000Y-93472000D02*
X107188000Y-94660900D01*
X114046000Y-100998800D02*
X114046000Y-105156000D01*
X107708100Y-94660900D02*
X114046000Y-100998800D01*
X107188000Y-94660900D02*
X107708100Y-94660900D01*
X114046000Y-106862700D02*
X109728000Y-111180700D01*
X114046000Y-105156000D02*
X114046000Y-106862700D01*
X109728000Y-112522000D02*
X109728000Y-111180700D01*
X151986600Y-100313400D02*
X153312000Y-98988000D01*
X151986600Y-105028600D02*
X151986600Y-100313400D01*
X153312000Y-106354000D02*
X151986600Y-105028600D01*
X117475000Y-80010000D02*
X117602000Y-79883000D01*
X112202000Y-80010000D02*
X117475000Y-80010000D01*
X107188000Y-93472000D02*
X107188000Y-88900000D01*
X129540000Y-78824000D02*
X130315300Y-78824000D01*
X132461000Y-74086800D02*
X132527000Y-74152800D01*
X132461000Y-73152000D02*
X132461000Y-74086800D01*
X130810000Y-73152000D02*
X132461000Y-73152000D01*
X118583200Y-70104000D02*
X117602000Y-70104000D01*
X122731600Y-65955600D02*
X118583200Y-70104000D01*
X130038200Y-65955600D02*
X122731600Y-65955600D01*
X130810000Y-66727400D02*
X130038200Y-65955600D01*
X130810000Y-73152000D02*
X130810000Y-66727400D01*
X117475000Y-69977000D02*
X117602000Y-70104000D01*
X113411000Y-69977000D02*
X117475000Y-69977000D01*
X112268000Y-71120000D02*
X113411000Y-69977000D01*
X112202000Y-71120000D02*
X112268000Y-71120000D01*
X117602000Y-70104000D02*
X117602000Y-72390000D01*
X127889000Y-73152000D02*
X130450100Y-73152000D01*
X127574000Y-73467000D02*
X127889000Y-73152000D01*
X127574000Y-74152800D02*
X127574000Y-73467000D01*
X130450100Y-73152000D02*
X130810000Y-73152000D01*
X130450100Y-77803000D02*
X130574300Y-77803000D01*
X130450100Y-73152000D02*
X130450100Y-77803000D01*
X130450100Y-78689200D02*
X130315300Y-78824000D01*
X130450100Y-77803000D02*
X130450100Y-78689200D01*
X117602000Y-85090000D02*
X112202000Y-85090000D01*
X117602000Y-80010000D02*
X117602000Y-85090000D01*
X106667900Y-87711100D02*
X107188000Y-87711100D01*
X107188000Y-88900000D02*
X107188000Y-87711100D01*
X112202000Y-85090000D02*
X106601800Y-85090000D01*
X106601800Y-85090000D02*
X105837000Y-85854800D01*
X105837000Y-85854800D02*
X105837000Y-86880200D01*
X105837000Y-86880200D02*
X106667900Y-87711100D01*
X112202000Y-76200000D02*
X113127300Y-76200000D01*
X113128900Y-76201600D02*
X113359500Y-76201600D01*
X113127300Y-76200000D02*
X113128900Y-76201600D01*
X136638000Y-97210400D02*
X135842300Y-96414700D01*
X146558000Y-72136000D02*
X146558000Y-73324900D01*
X139954000Y-78824000D02*
X140729300Y-78824000D01*
X146558000Y-73324900D02*
X141473500Y-78409400D01*
X141473400Y-78409400D02*
X141473500Y-78409400D01*
X141143900Y-78409400D02*
X141473400Y-78409400D01*
X140729300Y-78824000D02*
X141143900Y-78409400D01*
X141473500Y-78409400D02*
X146812000Y-83748000D01*
X132461000Y-73152000D02*
X136321100Y-73152000D01*
X136321100Y-77771200D02*
X135268300Y-78824000D01*
X136321100Y-73152000D02*
X136321100Y-77771200D01*
X134493000Y-78824000D02*
X135268300Y-78824000D01*
X151986600Y-97662600D02*
X153312000Y-98988000D01*
X151986600Y-92693400D02*
X151986600Y-97662600D01*
X153312000Y-91368000D02*
X151986600Y-92693400D01*
X151986600Y-90042600D02*
X153312000Y-91368000D01*
X151986600Y-85073400D02*
X151986600Y-90042600D01*
X153312000Y-83748000D02*
X151986600Y-85073400D01*
X136321100Y-73152000D02*
X137854500Y-73152000D01*
X139888000Y-73086000D02*
X139888000Y-69850000D01*
X139954000Y-73152000D02*
X139888000Y-73086000D01*
X137854500Y-73152000D02*
X139954000Y-73152000D01*
X137988000Y-73285500D02*
X137988000Y-74152800D01*
X137854500Y-73152000D02*
X137988000Y-73285500D01*
X133424200Y-93996600D02*
X130627600Y-91200000D01*
X133424200Y-94675900D02*
X133424200Y-93996600D01*
X135163000Y-96414700D02*
X133424200Y-94675900D01*
X135842300Y-96414700D02*
X135163000Y-96414700D01*
X143002000Y-112522000D02*
X143002000Y-112141000D01*
X143002000Y-112141000D02*
X141605000Y-110744000D01*
X137414000Y-100203000D02*
X139088000Y-98529000D01*
X137414000Y-110686002D02*
X137414000Y-100203000D01*
X137356002Y-110744000D02*
X137414000Y-110686002D01*
X141605000Y-110744000D02*
X137356002Y-110744000D01*
X143002000Y-112522000D02*
X143002000Y-113030000D01*
X143002000Y-113030000D02*
X142113000Y-113919000D01*
X137160000Y-98863686D02*
X136072361Y-97776047D01*
X137160000Y-98933000D02*
X137160000Y-98863686D01*
X136398000Y-99695000D02*
X137160000Y-98933000D01*
X136398000Y-113792000D02*
X136398000Y-99695000D01*
X136271000Y-113919000D02*
X136398000Y-113792000D01*
X142113000Y-113919000D02*
X136271000Y-113919000D01*
X121797600Y-112136400D02*
X121797600Y-104184100D01*
X121797600Y-81680900D02*
X121396700Y-81280000D01*
X121797600Y-81680900D02*
X121797600Y-104184100D01*
X121797600Y-112136400D02*
X121412000Y-112522000D01*
X137203700Y-96644700D02*
X137999400Y-97440400D01*
X121164000Y-81280000D02*
X121396700Y-81280000D01*
X121164000Y-78486000D02*
X121164000Y-79026300D01*
X121164000Y-79026300D02*
X121396700Y-79259000D01*
X121396700Y-79259000D02*
X121396700Y-81280000D01*
X137999400Y-97440400D02*
X139088000Y-98529000D01*
X142223600Y-112662500D02*
X142223600Y-112522000D01*
X143001300Y-112522000D02*
X142223600Y-112522000D01*
X151638000Y-72136000D02*
X151638000Y-73324900D01*
X143002000Y-112522000D02*
X143001300Y-112522000D01*
X151145400Y-73817500D02*
X151638000Y-73324900D01*
X151145400Y-105982400D02*
X151145400Y-73817500D01*
X148899400Y-108228400D02*
X151145400Y-105982400D01*
X148899400Y-111132500D02*
X148899400Y-108228400D01*
X149295400Y-111528500D02*
X148899400Y-111132500D01*
X149295400Y-113179800D02*
X149295400Y-111528500D01*
X148591600Y-113883600D02*
X149295400Y-113179800D01*
X145032400Y-113883600D02*
X148591600Y-113883600D01*
X144190900Y-113042100D02*
X145032400Y-113883600D01*
X144190900Y-112522000D02*
X144190900Y-113042100D01*
X143002000Y-112522000D02*
X144190900Y-112522000D01*
X134994300Y-96980300D02*
X135276700Y-96980300D01*
X132384600Y-94370600D02*
X134994300Y-96980300D01*
X132384600Y-94088200D02*
X132384600Y-94370600D01*
X130062000Y-91765600D02*
X132384600Y-94088200D01*
X136072400Y-97776000D02*
X135276700Y-96980300D01*
X148196300Y-85817100D02*
X148196300Y-106850800D01*
X147457300Y-85078100D02*
X148196300Y-85817100D01*
X148196300Y-106850800D02*
X145542000Y-109505100D01*
X145542000Y-109505100D02*
X145542000Y-112522000D01*
X136072400Y-91200000D02*
X136868100Y-90404300D01*
X149098000Y-69596000D02*
X149098000Y-70784900D01*
X148726400Y-70784900D02*
X149098000Y-70784900D01*
X147909100Y-71602200D02*
X148726400Y-70784900D01*
X147909100Y-75774900D02*
X147909100Y-71602200D01*
X148137400Y-76003200D02*
X147909100Y-75774900D01*
X148137400Y-84398000D02*
X148137400Y-76003200D01*
X147457300Y-85078100D02*
X148137400Y-84398000D01*
X143784900Y-85078100D02*
X147457300Y-85078100D01*
X142745000Y-84038200D02*
X143784900Y-85078100D01*
X134382300Y-84038200D02*
X142745000Y-84038200D01*
X133981500Y-84439000D02*
X134382300Y-84038200D01*
X133981500Y-86175900D02*
X133981500Y-84439000D01*
X136868100Y-89062500D02*
X133981500Y-86175900D01*
X136868100Y-90404300D02*
X136868100Y-89062500D01*
X148082000Y-108408800D02*
X148082000Y-112522000D01*
X149098000Y-72136000D02*
X149098000Y-107392800D01*
X149098000Y-107392800D02*
X148082000Y-108408800D01*
X128930600Y-92897000D02*
X128134800Y-92101200D01*
X128240900Y-90870500D02*
X128241000Y-90870500D01*
X128240900Y-91995100D02*
X128240900Y-90870500D01*
X128134800Y-92101200D02*
X128240900Y-91995100D01*
X150622000Y-111170900D02*
X150622000Y-112522000D01*
X150368000Y-110916900D02*
X150622000Y-111170900D01*
X150368000Y-109474000D02*
X150368000Y-110916900D01*
X126365000Y-92075000D02*
X126492000Y-91948000D01*
X126492000Y-91948000D02*
X126492000Y-90290198D01*
X126492000Y-90290198D02*
X128263198Y-88519000D01*
X128263198Y-88519000D02*
X131340798Y-88519000D01*
X131340798Y-88519000D02*
X132324695Y-89502897D01*
X127279600Y-95726800D02*
X126573700Y-95020900D01*
X127279600Y-96019300D02*
X127279600Y-95726800D01*
X127569300Y-96308900D02*
X127279600Y-96019300D01*
X128364900Y-95513300D02*
X127569300Y-96308900D01*
X128927800Y-102870000D02*
X132324700Y-99473100D01*
X128905000Y-102870000D02*
X128927800Y-102870000D01*
X140904000Y-67310000D02*
X142875000Y-69281000D01*
X134620000Y-67310000D02*
X140904000Y-67310000D01*
X138938000Y-68326000D02*
X138938000Y-72153800D01*
X140208000Y-68326000D02*
X138938000Y-68326000D01*
X141163000Y-69281000D02*
X140208000Y-68326000D01*
X142875000Y-69281000D02*
X141163000Y-69281000D01*
X137988000Y-69850000D02*
X133350000Y-69850000D01*
X133477000Y-69977000D02*
X133350000Y-69850000D01*
X133477000Y-72153800D02*
X133477000Y-69977000D01*
X132080000Y-68580000D02*
X132080000Y-67310000D01*
X133350000Y-69850000D02*
X132080000Y-68580000D01*
X129667000Y-67437000D02*
X129540000Y-67310000D01*
X128524000Y-72153800D02*
X128524000Y-68326000D01*
X128524000Y-68326000D02*
X129540000Y-67310000D01*
X128016000Y-68834000D02*
X128524000Y-68326000D01*
X126873000Y-68834000D02*
X128016000Y-68834000D01*
X126111000Y-69596000D02*
X126873000Y-68834000D01*
X126111000Y-71501000D02*
X126111000Y-69596000D01*
X124394000Y-73218000D02*
X126111000Y-71501000D01*
X124394000Y-73660000D02*
X124394000Y-73218000D01*
X128524000Y-68326000D02*
X129540000Y-67310000D01*
X112268000Y-110699300D02*
X112268000Y-112522000D01*
X116586000Y-106381300D02*
X112268000Y-110699300D01*
X116586000Y-105718800D02*
X116586000Y-106381300D01*
X116586000Y-105718800D02*
X116586000Y-105156000D01*
X116586000Y-105156000D02*
X116586000Y-103930700D01*
X121164000Y-99352700D02*
X116586000Y-103930700D01*
X121164000Y-84360300D02*
X121164000Y-99352700D01*
X121164000Y-83820000D02*
X121164000Y-84360300D01*
X121164000Y-76200000D02*
X121629300Y-76200000D01*
X122422900Y-76993600D02*
X122422900Y-103378500D01*
X121629300Y-76200000D02*
X122422900Y-76993600D01*
X129540000Y-76624000D02*
X129540000Y-76215700D01*
X129540000Y-74218800D02*
X129474000Y-74152800D01*
X129540000Y-76215700D02*
X129540000Y-74218800D01*
X126888700Y-78867000D02*
X126873000Y-78867000D01*
X129540000Y-76215700D02*
X126888700Y-78867000D01*
X127344100Y-98006100D02*
X129266300Y-98006100D01*
X124837100Y-95499100D02*
X127344100Y-98006100D01*
X124837100Y-86751500D02*
X124837100Y-95499100D01*
X129656800Y-81931800D02*
X124837100Y-86751500D01*
X130062000Y-97210400D02*
X129266300Y-98006100D01*
X139954000Y-76624000D02*
X139954000Y-75638400D01*
X139954000Y-74218800D02*
X139888000Y-74152800D01*
X139954000Y-75638400D02*
X139954000Y-74218800D01*
X138483600Y-75638400D02*
X137541000Y-76581000D01*
X139954000Y-75638400D02*
X138483600Y-75638400D01*
X127415300Y-97440400D02*
X128700600Y-97440400D01*
X125288900Y-95314000D02*
X127415300Y-97440400D01*
X125288900Y-90133800D02*
X125288900Y-95314000D01*
X137541000Y-77881700D02*
X125288900Y-90133800D01*
X137541000Y-76581000D02*
X137541000Y-77881700D01*
X129496300Y-96644700D02*
X128700600Y-97440400D01*
X131193300Y-98341700D02*
X130397600Y-99137400D01*
X130225500Y-99309500D02*
X130397600Y-99137400D01*
X128010600Y-99309500D02*
X130225500Y-99309500D01*
X124386800Y-95685700D02*
X128010600Y-99309500D01*
X124386800Y-86179200D02*
X124386800Y-95685700D01*
X131699000Y-78867000D02*
X124386800Y-86179200D01*
X134493000Y-76624000D02*
X134493000Y-75825500D01*
X134493000Y-74218800D02*
X134427000Y-74152800D01*
X134493000Y-75825500D02*
X134493000Y-74218800D01*
X131699000Y-78619500D02*
X131699000Y-78867000D01*
X134493000Y-75825500D02*
X131699000Y-78619500D01*
X134941000Y-90068600D02*
X135736800Y-89272800D01*
X133345100Y-86881100D02*
X135736800Y-89272800D01*
X133345100Y-83685000D02*
X133345100Y-86881100D01*
X128927100Y-91309100D02*
X128700600Y-91535600D01*
X128927100Y-90649600D02*
X128927100Y-91309100D01*
X129331600Y-90245100D02*
X128927100Y-90649600D01*
X129496300Y-92331300D02*
X128700600Y-91535600D01*
X129719400Y-98684200D02*
X130627600Y-97776000D01*
X129649500Y-98684200D02*
X129719400Y-98684200D01*
X134375300Y-89502900D02*
X133579700Y-90298500D01*
X133810400Y-90529300D02*
X133579700Y-90298500D01*
X133810400Y-93427500D02*
X133810400Y-90529300D01*
X133874500Y-93491600D02*
X133810400Y-93427500D01*
X133874500Y-94192000D02*
X133874500Y-93491600D01*
X135021500Y-95339000D02*
X133874500Y-94192000D01*
X134711000Y-92205200D02*
X134711000Y-91430000D01*
X135821900Y-93316100D02*
X134711000Y-92205200D01*
X135821900Y-95788400D02*
X135821900Y-93316100D01*
X135506700Y-90634300D02*
X134711000Y-91430000D01*
X134375305Y-99473103D02*
X134398103Y-99473103D01*
X134398103Y-99473103D02*
X131572000Y-102299206D01*
X131572000Y-102299206D02*
X131572000Y-107612000D01*
X137769400Y-92897000D02*
X136973800Y-93692600D01*
X136973800Y-93692700D02*
X136973800Y-93692600D01*
X136973800Y-93873100D02*
X136973800Y-93692700D01*
X136622200Y-94224700D02*
X136973800Y-93873100D01*
X136622200Y-95339000D02*
X136622200Y-94224700D01*
X127220200Y-94467300D02*
X127616900Y-94864000D01*
X127220200Y-92925800D02*
X127220200Y-94467300D01*
X127582000Y-92564000D02*
X127220200Y-92925800D01*
X127582000Y-90640000D02*
X127582000Y-92564000D01*
X128602200Y-89619800D02*
X127582000Y-90640000D01*
X130178800Y-89619800D02*
X128602200Y-89619800D01*
X131193300Y-90634300D02*
X130178800Y-89619800D01*
X126390700Y-93028300D02*
X126390700Y-93375900D01*
X127090200Y-92328800D02*
X126390700Y-93028300D01*
X127090200Y-90466300D02*
X127090200Y-92328800D01*
X128417000Y-89139500D02*
X127090200Y-90466300D01*
X130829900Y-89139500D02*
X128417000Y-89139500D01*
X131759000Y-90068600D02*
X130829900Y-89139500D01*
X129689800Y-94035600D02*
X130540500Y-93184900D01*
X129383300Y-94035600D02*
X129689800Y-94035600D01*
X129160600Y-94258300D02*
X129383300Y-94035600D01*
X128364900Y-93462700D02*
X129160600Y-94258300D01*
X128930600Y-96079000D02*
X128134800Y-96874800D01*
X146558000Y-69596000D02*
X146558000Y-70784900D01*
X146186400Y-70784900D02*
X146558000Y-70784900D01*
X145369100Y-71602200D02*
X146186400Y-70784900D01*
X145369100Y-72754100D02*
X145369100Y-71602200D01*
X140224600Y-77898600D02*
X145369100Y-72754100D01*
X138247200Y-77898600D02*
X140224600Y-77898600D01*
X125739300Y-90406500D02*
X138247200Y-77898600D01*
X125739300Y-95118700D02*
X125739300Y-90406500D01*
X127495400Y-96874800D02*
X125739300Y-95118700D01*
X128134800Y-96874800D02*
X127495400Y-96874800D01*
X124394000Y-69916000D02*
X127000000Y-67310000D01*
X124394000Y-71120000D02*
X124394000Y-69916000D01*
X120644000Y-83820000D02*
X120411400Y-83820000D01*
X120411400Y-83820000D02*
X120178700Y-83820000D01*
X120644000Y-81280000D02*
X120644000Y-81820300D01*
X118702000Y-83820000D02*
X120178700Y-83820000D01*
X118702000Y-86360000D02*
X118702000Y-85584700D01*
X118702000Y-83820000D02*
X118702000Y-85584700D01*
X119638500Y-81280000D02*
X120411400Y-82052900D01*
X118702000Y-81280000D02*
X119638500Y-81280000D01*
X120644000Y-81820300D02*
X120411400Y-82052900D01*
X120411400Y-82052900D02*
X120411400Y-83820000D01*
X118702000Y-71120000D02*
X119627300Y-71120000D01*
X120644000Y-78486000D02*
X120178700Y-78486000D01*
X118702000Y-76200000D02*
X118702000Y-78486000D01*
X118702000Y-78486000D02*
X120178700Y-78486000D01*
X120644000Y-76200000D02*
X120644000Y-75929800D01*
X120644000Y-75929800D02*
X120644000Y-75659700D01*
X119897500Y-75929800D02*
X119627300Y-76200000D01*
X120644000Y-75929800D02*
X119897500Y-75929800D01*
X121985900Y-75659700D02*
X120644000Y-75659700D01*
X123419400Y-74226200D02*
X121985900Y-75659700D01*
X123419400Y-70536300D02*
X123419400Y-74226200D01*
X123240100Y-70357000D02*
X123419400Y-70536300D01*
X120390300Y-70357000D02*
X123240100Y-70357000D01*
X119627300Y-71120000D02*
X120390300Y-70357000D01*
X118702000Y-76200000D02*
X119164700Y-76200000D01*
X119164700Y-76200000D02*
X119627300Y-76200000D01*
X119164700Y-74898000D02*
X118702000Y-74435300D01*
X119164700Y-76200000D02*
X119164700Y-74898000D01*
X118702000Y-73660000D02*
X118702000Y-74435300D01*
X134941000Y-98907400D02*
X134145400Y-98111700D01*
X133957200Y-98111800D02*
X133904300Y-98058900D01*
X134145300Y-98111800D02*
X133957200Y-98111800D01*
X134145400Y-98111700D02*
X134145300Y-98111800D01*
M02*
