M48
;DRILL file {KiCad 4.0.2-stable} date 01.03.2017 20:49:37
;FORMAT={-:-/ absolute / metric / decimal}
FMAT,2
METRIC,TZ
T1C0.400
T2C0.635
T3C1.000
T4C1.016
T5C1.100
T6C3.200
%
G90
G05
M71
T1
X113.359Y-76.202
X122.423Y-103.378
X123.365Y-80.813
X126.365Y-92.075
X126.391Y-93.376
X126.574Y-95.021
X127.617Y-94.864
X128.241Y-90.87
X129.332Y-90.245
X129.649Y-98.684
X129.657Y-81.932
X130.54Y-93.185
X130.574Y-77.803
X131.488Y-94.358
X133.345Y-83.685
X133.904Y-98.059
X134.646Y-84.709
X135.022Y-95.339
X135.446Y-84.714
X135.822Y-95.788
X136.138Y-87.115
X136.622Y-95.339
X138.912Y-94.978
T2
X126.873Y-76.708
X126.873Y-78.867
X128.905Y-102.87
X131.699Y-76.708
X131.699Y-78.867
X137.541Y-76.581
T3
X111.506Y-105.156
X114.046Y-105.156
X116.586Y-105.156
T4
X107.188Y-71.12
X107.188Y-73.66
X107.188Y-76.2
X107.188Y-78.74
X107.188Y-81.28
X107.188Y-83.82
X107.188Y-86.36
X107.188Y-88.9
X107.188Y-93.472
X107.188Y-96.012
X107.188Y-98.552
X109.728Y-112.522
X112.268Y-112.522
X116.332Y-112.522
X118.872Y-112.522
X121.412Y-112.522
X123.952Y-112.522
X124.46Y-67.31
X126.492Y-112.522
X127.Y-67.31
X129.032Y-112.522
X129.54Y-67.31
X131.572Y-112.522
X132.08Y-67.31
X134.112Y-112.522
X134.62Y-67.31
X137.922Y-112.522
X140.462Y-108.966
X140.462Y-112.522
X143.002Y-112.522
X145.542Y-112.522
X146.558Y-69.596
X146.558Y-72.136
X148.082Y-112.522
X149.098Y-69.596
X149.098Y-72.136
X150.368Y-109.474
X150.622Y-112.522
X151.638Y-69.596
X151.638Y-72.136
T5
X146.812Y-79.248
X146.812Y-83.748
X146.812Y-86.868
X146.812Y-91.368
X146.812Y-94.488
X146.812Y-98.988
X146.812Y-101.854
X146.812Y-106.354
X153.312Y-79.248
X153.312Y-83.748
X153.312Y-86.868
X153.312Y-91.368
X153.312Y-94.488
X153.312Y-98.988
X153.312Y-101.854
X153.312Y-106.354
T6
X114.046Y-90.805
X141.605Y-101.981
T0
M30
