G04 #@! TF.FileFunction,Soldermask,Bot*
%FSLAX46Y46*%
G04 Gerber Fmt 4.6, Leading zero omitted, Abs format (unit mm)*
G04 Created by KiCad (PCBNEW 4.0.2-stable) date 01.03.2017 20:49:35*
%MOMM*%
G01*
G04 APERTURE LIST*
%ADD10C,0.100000*%
%ADD11C,3.600000*%
%ADD12R,2.432000X2.127200*%
%ADD13O,2.432000X2.127200*%
%ADD14R,2.127200X2.432000*%
%ADD15O,2.127200X2.432000*%
%ADD16R,2.432000X2.432000*%
%ADD17O,2.432000X2.432000*%
%ADD18R,2.635200X2.635200*%
%ADD19R,1.200100X1.200100*%
%ADD20R,2.127200X2.127200*%
%ADD21O,2.127200X2.127200*%
%ADD22C,1.543000*%
%ADD23C,2.400000*%
%ADD24R,0.680000X0.830000*%
%ADD25R,1.600000X1.300000*%
%ADD26R,1.600000X1.150000*%
%ADD27R,1.150000X1.600000*%
%ADD28R,1.300000X1.600000*%
%ADD29R,2.200000X2.200000*%
%ADD30O,2.200000X2.200000*%
G04 APERTURE END LIST*
D10*
D11*
X141605000Y-101981000D03*
X114046000Y-90805000D03*
D12*
X107188000Y-71120000D03*
D13*
X107188000Y-73660000D03*
X107188000Y-76200000D03*
X107188000Y-78740000D03*
X107188000Y-81280000D03*
X107188000Y-83820000D03*
X107188000Y-86360000D03*
X107188000Y-88900000D03*
D12*
X107188000Y-98552000D03*
D13*
X107188000Y-96012000D03*
X107188000Y-93472000D03*
D14*
X137922000Y-112522000D03*
D15*
X140462000Y-112522000D03*
X143002000Y-112522000D03*
X145542000Y-112522000D03*
X148082000Y-112522000D03*
X150622000Y-112522000D03*
D14*
X116332000Y-112522000D03*
D15*
X118872000Y-112522000D03*
X121412000Y-112522000D03*
X123952000Y-112522000D03*
X126492000Y-112522000D03*
X129032000Y-112522000D03*
X131572000Y-112522000D03*
X134112000Y-112522000D03*
D14*
X134620000Y-67310000D03*
D15*
X132080000Y-67310000D03*
X129540000Y-67310000D03*
X127000000Y-67310000D03*
X124460000Y-67310000D03*
D16*
X109728000Y-112522000D03*
D17*
X112268000Y-112522000D03*
D18*
X140462000Y-108966000D03*
X150368000Y-109474000D03*
D19*
X134427000Y-74152760D03*
X132527000Y-74152760D03*
X133477000Y-72153780D03*
X139888000Y-74152760D03*
X137988000Y-74152760D03*
X138938000Y-72153780D03*
X129474000Y-74152760D03*
X127574000Y-74152760D03*
X128524000Y-72153780D03*
D20*
X151638000Y-69596000D03*
D21*
X151638000Y-72136000D03*
X149098000Y-69596000D03*
X149098000Y-72136000D03*
X146558000Y-69596000D03*
X146558000Y-72136000D03*
D10*
G36*
X127321914Y-93091464D02*
X127993666Y-92419712D01*
X129407880Y-93833926D01*
X128736128Y-94505678D01*
X127321914Y-93091464D01*
X127321914Y-93091464D01*
G37*
G36*
X127887600Y-92525779D02*
X128559352Y-91854027D01*
X129973566Y-93268241D01*
X129301814Y-93939993D01*
X127887600Y-92525779D01*
X127887600Y-92525779D01*
G37*
G36*
X128453285Y-91960093D02*
X129125037Y-91288341D01*
X130539251Y-92702555D01*
X129867499Y-93374307D01*
X128453285Y-91960093D01*
X128453285Y-91960093D01*
G37*
G36*
X129018970Y-91394408D02*
X129690722Y-90722656D01*
X131104936Y-92136870D01*
X130433184Y-92808622D01*
X129018970Y-91394408D01*
X129018970Y-91394408D01*
G37*
G36*
X129584656Y-90828722D02*
X130256408Y-90156970D01*
X131670622Y-91571184D01*
X130998870Y-92242936D01*
X129584656Y-90828722D01*
X129584656Y-90828722D01*
G37*
G36*
X130150341Y-90263037D02*
X130822093Y-89591285D01*
X132236307Y-91005499D01*
X131564555Y-91677251D01*
X130150341Y-90263037D01*
X130150341Y-90263037D01*
G37*
G36*
X130716027Y-89697352D02*
X131387779Y-89025600D01*
X132801993Y-90439814D01*
X132130241Y-91111566D01*
X130716027Y-89697352D01*
X130716027Y-89697352D01*
G37*
G36*
X131281712Y-89131666D02*
X131953464Y-88459914D01*
X133367678Y-89874128D01*
X132695926Y-90545880D01*
X131281712Y-89131666D01*
X131281712Y-89131666D01*
G37*
G36*
X134746536Y-88459914D02*
X135418288Y-89131666D01*
X134004074Y-90545880D01*
X133332322Y-89874128D01*
X134746536Y-88459914D01*
X134746536Y-88459914D01*
G37*
G36*
X135312221Y-89025600D02*
X135983973Y-89697352D01*
X134569759Y-91111566D01*
X133898007Y-90439814D01*
X135312221Y-89025600D01*
X135312221Y-89025600D01*
G37*
G36*
X135877907Y-89591285D02*
X136549659Y-90263037D01*
X135135445Y-91677251D01*
X134463693Y-91005499D01*
X135877907Y-89591285D01*
X135877907Y-89591285D01*
G37*
G36*
X136443592Y-90156970D02*
X137115344Y-90828722D01*
X135701130Y-92242936D01*
X135029378Y-91571184D01*
X136443592Y-90156970D01*
X136443592Y-90156970D01*
G37*
G36*
X137009278Y-90722656D02*
X137681030Y-91394408D01*
X136266816Y-92808622D01*
X135595064Y-92136870D01*
X137009278Y-90722656D01*
X137009278Y-90722656D01*
G37*
G36*
X137574963Y-91288341D02*
X138246715Y-91960093D01*
X136832501Y-93374307D01*
X136160749Y-92702555D01*
X137574963Y-91288341D01*
X137574963Y-91288341D01*
G37*
G36*
X138140648Y-91854027D02*
X138812400Y-92525779D01*
X137398186Y-93939993D01*
X136726434Y-93268241D01*
X138140648Y-91854027D01*
X138140648Y-91854027D01*
G37*
G36*
X138706334Y-92419712D02*
X139378086Y-93091464D01*
X137963872Y-94505678D01*
X137292120Y-93833926D01*
X138706334Y-92419712D01*
X138706334Y-92419712D01*
G37*
G36*
X137292120Y-95142074D02*
X137963872Y-94470322D01*
X139378086Y-95884536D01*
X138706334Y-96556288D01*
X137292120Y-95142074D01*
X137292120Y-95142074D01*
G37*
G36*
X136726434Y-95707759D02*
X137398186Y-95036007D01*
X138812400Y-96450221D01*
X138140648Y-97121973D01*
X136726434Y-95707759D01*
X136726434Y-95707759D01*
G37*
G36*
X136160749Y-96273445D02*
X136832501Y-95601693D01*
X138246715Y-97015907D01*
X137574963Y-97687659D01*
X136160749Y-96273445D01*
X136160749Y-96273445D01*
G37*
G36*
X135595064Y-96839130D02*
X136266816Y-96167378D01*
X137681030Y-97581592D01*
X137009278Y-98253344D01*
X135595064Y-96839130D01*
X135595064Y-96839130D01*
G37*
G36*
X135029378Y-97404816D02*
X135701130Y-96733064D01*
X137115344Y-98147278D01*
X136443592Y-98819030D01*
X135029378Y-97404816D01*
X135029378Y-97404816D01*
G37*
G36*
X134463693Y-97970501D02*
X135135445Y-97298749D01*
X136549659Y-98712963D01*
X135877907Y-99384715D01*
X134463693Y-97970501D01*
X134463693Y-97970501D01*
G37*
G36*
X133898007Y-98536186D02*
X134569759Y-97864434D01*
X135983973Y-99278648D01*
X135312221Y-99950400D01*
X133898007Y-98536186D01*
X133898007Y-98536186D01*
G37*
G36*
X133332322Y-99101872D02*
X134004074Y-98430120D01*
X135418288Y-99844334D01*
X134746536Y-100516086D01*
X133332322Y-99101872D01*
X133332322Y-99101872D01*
G37*
G36*
X132695926Y-98430120D02*
X133367678Y-99101872D01*
X131953464Y-100516086D01*
X131281712Y-99844334D01*
X132695926Y-98430120D01*
X132695926Y-98430120D01*
G37*
G36*
X132130241Y-97864434D02*
X132801993Y-98536186D01*
X131387779Y-99950400D01*
X130716027Y-99278648D01*
X132130241Y-97864434D01*
X132130241Y-97864434D01*
G37*
G36*
X131564555Y-97298749D02*
X132236307Y-97970501D01*
X130822093Y-99384715D01*
X130150341Y-98712963D01*
X131564555Y-97298749D01*
X131564555Y-97298749D01*
G37*
G36*
X130998870Y-96733064D02*
X131670622Y-97404816D01*
X130256408Y-98819030D01*
X129584656Y-98147278D01*
X130998870Y-96733064D01*
X130998870Y-96733064D01*
G37*
G36*
X130433184Y-96167378D02*
X131104936Y-96839130D01*
X129690722Y-98253344D01*
X129018970Y-97581592D01*
X130433184Y-96167378D01*
X130433184Y-96167378D01*
G37*
G36*
X129867499Y-95601693D02*
X130539251Y-96273445D01*
X129125037Y-97687659D01*
X128453285Y-97015907D01*
X129867499Y-95601693D01*
X129867499Y-95601693D01*
G37*
G36*
X129301814Y-95036007D02*
X129973566Y-95707759D01*
X128559352Y-97121973D01*
X127887600Y-96450221D01*
X129301814Y-95036007D01*
X129301814Y-95036007D01*
G37*
G36*
X128736128Y-94470322D02*
X129407880Y-95142074D01*
X127993666Y-96556288D01*
X127321914Y-95884536D01*
X128736128Y-94470322D01*
X128736128Y-94470322D01*
G37*
D22*
X128905000Y-102870000D03*
X126873000Y-78867000D03*
X137541000Y-76581000D03*
X131699000Y-78867000D03*
X126873000Y-76708000D03*
X131699000Y-76708000D03*
D23*
X146812000Y-106354000D03*
X146812000Y-101854000D03*
X153312000Y-106354000D03*
X153312000Y-101854000D03*
X146812000Y-91368000D03*
X146812000Y-86868000D03*
X153312000Y-91368000D03*
X153312000Y-86868000D03*
X146812000Y-98988000D03*
X146812000Y-94488000D03*
X153312000Y-98988000D03*
X153312000Y-94488000D03*
X146812000Y-83748000D03*
X146812000Y-79248000D03*
X153312000Y-83748000D03*
X153312000Y-79248000D03*
D24*
X121164000Y-81280000D03*
X120644000Y-81280000D03*
X121164000Y-83820000D03*
X120644000Y-83820000D03*
X120644000Y-78486000D03*
X121164000Y-78486000D03*
X120644000Y-76200000D03*
X121164000Y-76200000D03*
D25*
X116502000Y-86360000D03*
X118702000Y-86360000D03*
X116502000Y-83820000D03*
X118702000Y-83820000D03*
X116502000Y-81280000D03*
X118702000Y-81280000D03*
X116502000Y-78486000D03*
X118702000Y-78486000D03*
X116502000Y-76200000D03*
X118702000Y-76200000D03*
X116502000Y-73660000D03*
X118702000Y-73660000D03*
X116502000Y-71120000D03*
X118702000Y-71120000D03*
D26*
X110302000Y-86360000D03*
X112202000Y-86360000D03*
X110302000Y-83820000D03*
X112202000Y-83820000D03*
X110302000Y-81280000D03*
X112202000Y-81280000D03*
X110302000Y-78740000D03*
X112202000Y-78740000D03*
X110302000Y-76200000D03*
X112202000Y-76200000D03*
X110302000Y-73660000D03*
X112202000Y-73660000D03*
X110302000Y-71120000D03*
X112202000Y-71120000D03*
X124394000Y-71120000D03*
X122494000Y-71120000D03*
X137988000Y-69850000D03*
X139888000Y-69850000D03*
D27*
X142875000Y-69281000D03*
X142875000Y-71181000D03*
D26*
X124394000Y-73660000D03*
X122494000Y-73660000D03*
D28*
X131572000Y-109812000D03*
X131572000Y-107612000D03*
X134493000Y-78824000D03*
X134493000Y-76624000D03*
X139954000Y-78824000D03*
X139954000Y-76624000D03*
X129540000Y-78824000D03*
X129540000Y-76624000D03*
D29*
X116586000Y-105156000D03*
D30*
X114046000Y-105156000D03*
X111506000Y-105156000D03*
M02*
