G04 #@! TF.FileFunction,Legend,Top*
%FSLAX46Y46*%
G04 Gerber Fmt 4.6, Leading zero omitted, Abs format (unit mm)*
G04 Created by KiCad (PCBNEW 4.0.2-stable) date 01.03.2017 20:49:35*
%MOMM*%
G01*
G04 APERTURE LIST*
%ADD10C,0.100000*%
%ADD11C,0.150000*%
%ADD12C,0.120000*%
G04 APERTURE END LIST*
D10*
D11*
X108458000Y-72390000D02*
X108458000Y-90170000D01*
X108458000Y-90170000D02*
X105918000Y-90170000D01*
X105918000Y-90170000D02*
X105918000Y-72390000D01*
X108738000Y-69570000D02*
X108738000Y-71120000D01*
X108458000Y-72390000D02*
X105918000Y-72390000D01*
X105638000Y-71120000D02*
X105638000Y-69570000D01*
X105638000Y-69570000D02*
X108738000Y-69570000D01*
X108458000Y-97282000D02*
X108458000Y-92202000D01*
X108458000Y-92202000D02*
X105918000Y-92202000D01*
X105918000Y-92202000D02*
X105918000Y-97282000D01*
X105638000Y-100102000D02*
X105638000Y-98552000D01*
X105918000Y-97282000D02*
X108458000Y-97282000D01*
X108738000Y-98552000D02*
X108738000Y-100102000D01*
X108738000Y-100102000D02*
X105638000Y-100102000D01*
X139192000Y-111252000D02*
X151892000Y-111252000D01*
X151892000Y-111252000D02*
X151892000Y-113792000D01*
X151892000Y-113792000D02*
X139192000Y-113792000D01*
X136372000Y-110972000D02*
X137922000Y-110972000D01*
X139192000Y-111252000D02*
X139192000Y-113792000D01*
X137922000Y-114072000D02*
X136372000Y-114072000D01*
X136372000Y-114072000D02*
X136372000Y-110972000D01*
X117602000Y-111252000D02*
X135382000Y-111252000D01*
X135382000Y-111252000D02*
X135382000Y-113792000D01*
X135382000Y-113792000D02*
X117602000Y-113792000D01*
X114782000Y-110972000D02*
X116332000Y-110972000D01*
X117602000Y-111252000D02*
X117602000Y-113792000D01*
X116332000Y-114072000D02*
X114782000Y-114072000D01*
X114782000Y-114072000D02*
X114782000Y-110972000D01*
X134620000Y-65760000D02*
X136170000Y-65760000D01*
X136170000Y-65760000D02*
X136170000Y-68860000D01*
X136170000Y-68860000D02*
X134620000Y-68860000D01*
X133350000Y-68580000D02*
X123190000Y-68580000D01*
X123190000Y-68580000D02*
X123190000Y-66040000D01*
X123190000Y-66040000D02*
X133350000Y-66040000D01*
X133350000Y-68580000D02*
X133350000Y-66040000D01*
X110998000Y-111252000D02*
X113538000Y-111252000D01*
X108178000Y-110972000D02*
X109728000Y-110972000D01*
X110998000Y-111252000D02*
X110998000Y-113792000D01*
X109728000Y-114072000D02*
X108178000Y-114072000D01*
X108178000Y-114072000D02*
X108178000Y-110972000D01*
X110998000Y-113792000D02*
X113538000Y-113792000D01*
X113538000Y-113792000D02*
X113538000Y-111252000D01*
X142012000Y-107416000D02*
X142012000Y-108966000D01*
X138912000Y-108966000D02*
X138912000Y-107416000D01*
X138912000Y-107416000D02*
X142012000Y-107416000D01*
X139192000Y-110236000D02*
X141732000Y-110236000D01*
X151918000Y-107924000D02*
X151918000Y-109474000D01*
X148818000Y-109474000D02*
X148818000Y-107924000D01*
X148818000Y-107924000D02*
X151918000Y-107924000D01*
X149098000Y-110744000D02*
X151638000Y-110744000D01*
X135919160Y-72501760D02*
X135870900Y-72501760D01*
X133120180Y-73202800D02*
X133120180Y-72501760D01*
X133120180Y-72501760D02*
X133369100Y-72501760D01*
X135919160Y-72501760D02*
X136119820Y-72501760D01*
X136119820Y-72501760D02*
X136119820Y-73202800D01*
X131601160Y-72501760D02*
X131552900Y-72501760D01*
X128802180Y-73202800D02*
X128802180Y-72501760D01*
X128802180Y-72501760D02*
X129051100Y-72501760D01*
X131601160Y-72501760D02*
X131801820Y-72501760D01*
X131801820Y-72501760D02*
X131801820Y-73202800D01*
X118999000Y-98933000D02*
G75*
G03X118999000Y-98933000I-127000J0D01*
G01*
X119507000Y-99568000D02*
X119507000Y-94488000D01*
X116205000Y-99568000D02*
X116205000Y-94488000D01*
X120015000Y-99568000D02*
X120015000Y-94488000D01*
X120015000Y-99568000D02*
X116205000Y-99568000D01*
X120015000Y-94488000D02*
X116205000Y-94488000D01*
X150368000Y-68326000D02*
X145288000Y-68326000D01*
X153188000Y-68046000D02*
X153188000Y-69596000D01*
X152908000Y-70866000D02*
X150368000Y-70866000D01*
X150368000Y-70866000D02*
X150368000Y-68326000D01*
X145288000Y-68326000D02*
X145288000Y-73406000D01*
X145288000Y-73406000D02*
X150368000Y-73406000D01*
X153188000Y-68046000D02*
X151638000Y-68046000D01*
X152908000Y-73406000D02*
X152908000Y-70866000D01*
X150368000Y-73406000D02*
X152908000Y-73406000D01*
X129708219Y-102870000D02*
G75*
G03X129708219Y-102870000I-803219J0D01*
G01*
X127676219Y-78867000D02*
G75*
G03X127676219Y-78867000I-803219J0D01*
G01*
X138344219Y-76581000D02*
G75*
G03X138344219Y-76581000I-803219J0D01*
G01*
X132502219Y-78867000D02*
G75*
G03X132502219Y-78867000I-803219J0D01*
G01*
X127676219Y-76708000D02*
G75*
G03X127676219Y-76708000I-803219J0D01*
G01*
X132502219Y-76708000D02*
G75*
G03X132502219Y-76708000I-803219J0D01*
G01*
X152077564Y-104104000D02*
G75*
G03X152077564Y-104104000I-2015564J0D01*
G01*
X147812000Y-107354000D02*
X152312000Y-107354000D01*
X146562000Y-103354000D02*
X146562000Y-104854000D01*
X152312000Y-100854000D02*
X147812000Y-100854000D01*
X153562000Y-104854000D02*
X153562000Y-103354000D01*
X152077564Y-89118000D02*
G75*
G03X152077564Y-89118000I-2015564J0D01*
G01*
X147812000Y-92368000D02*
X152312000Y-92368000D01*
X146562000Y-88368000D02*
X146562000Y-89868000D01*
X152312000Y-85868000D02*
X147812000Y-85868000D01*
X153562000Y-89868000D02*
X153562000Y-88368000D01*
X152077564Y-96738000D02*
G75*
G03X152077564Y-96738000I-2015564J0D01*
G01*
X147812000Y-99988000D02*
X152312000Y-99988000D01*
X146562000Y-95988000D02*
X146562000Y-97488000D01*
X152312000Y-93488000D02*
X147812000Y-93488000D01*
X153562000Y-97488000D02*
X153562000Y-95988000D01*
X152077564Y-81498000D02*
G75*
G03X152077564Y-81498000I-2015564J0D01*
G01*
X147812000Y-84748000D02*
X152312000Y-84748000D01*
X146562000Y-80748000D02*
X146562000Y-82248000D01*
X152312000Y-78248000D02*
X147812000Y-78248000D01*
X153562000Y-82248000D02*
X153562000Y-80748000D01*
D12*
X112430000Y-83662000D02*
X112430000Y-82962000D01*
X113630000Y-82962000D02*
X113630000Y-83662000D01*
X123790000Y-82708000D02*
X123790000Y-83408000D01*
X122590000Y-83408000D02*
X122590000Y-82708000D01*
X112430000Y-78836000D02*
X112430000Y-78136000D01*
X113630000Y-78136000D02*
X113630000Y-78836000D01*
X123790000Y-78390000D02*
X123790000Y-79090000D01*
X122590000Y-79090000D02*
X122590000Y-78390000D01*
X113630000Y-73310000D02*
X113630000Y-74010000D01*
X112430000Y-74010000D02*
X112430000Y-73310000D01*
X121250000Y-68484000D02*
X121250000Y-69184000D01*
X120050000Y-69184000D02*
X120050000Y-68484000D01*
X113630000Y-68484000D02*
X113630000Y-69184000D01*
X112430000Y-69184000D02*
X112430000Y-68484000D01*
X127346000Y-73310000D02*
X127346000Y-74010000D01*
X126146000Y-74010000D02*
X126146000Y-73310000D01*
X124632000Y-108212000D02*
X124632000Y-109212000D01*
X123272000Y-109212000D02*
X123272000Y-108212000D01*
X127172000Y-108212000D02*
X127172000Y-109212000D01*
X125812000Y-109212000D02*
X125812000Y-108212000D01*
X129712000Y-108212000D02*
X129712000Y-109212000D01*
X128352000Y-109212000D02*
X128352000Y-108212000D01*
X134792000Y-108212000D02*
X134792000Y-109212000D01*
X133432000Y-109212000D02*
X133432000Y-108212000D01*
X111678000Y-96782000D02*
X111678000Y-97782000D01*
X110318000Y-97782000D02*
X110318000Y-96782000D01*
X134284000Y-76716000D02*
X134284000Y-77716000D01*
X132924000Y-77716000D02*
X132924000Y-76716000D01*
X129966000Y-76716000D02*
X129966000Y-77716000D01*
X128606000Y-77716000D02*
X128606000Y-76716000D01*
X111170000Y-68334000D02*
X111170000Y-69334000D01*
X109810000Y-69334000D02*
X109810000Y-68334000D01*
X118790000Y-68334000D02*
X118790000Y-69334000D01*
X117430000Y-69334000D02*
X117430000Y-68334000D01*
X111170000Y-73160000D02*
X111170000Y-74160000D01*
X109810000Y-74160000D02*
X109810000Y-73160000D01*
X119044000Y-73160000D02*
X119044000Y-74160000D01*
X117684000Y-74160000D02*
X117684000Y-73160000D01*
X109810000Y-78986000D02*
X109810000Y-77986000D01*
X111170000Y-77986000D02*
X111170000Y-78986000D01*
X119044000Y-78240000D02*
X119044000Y-79240000D01*
X117684000Y-79240000D02*
X117684000Y-78240000D01*
X109810000Y-83812000D02*
X109810000Y-82812000D01*
X111170000Y-82812000D02*
X111170000Y-83812000D01*
X116250000Y-82812000D02*
X116250000Y-83812000D01*
X114890000Y-83812000D02*
X114890000Y-82812000D01*
X119970000Y-83558000D02*
X119970000Y-82558000D01*
X121330000Y-82558000D02*
X121330000Y-83558000D01*
X116250000Y-77986000D02*
X116250000Y-78986000D01*
X114890000Y-78986000D02*
X114890000Y-77986000D01*
X119970000Y-79240000D02*
X119970000Y-78240000D01*
X121330000Y-78240000D02*
X121330000Y-79240000D01*
X114890000Y-74160000D02*
X114890000Y-73160000D01*
X116250000Y-73160000D02*
X116250000Y-74160000D01*
X123870000Y-73160000D02*
X123870000Y-74160000D01*
X122510000Y-74160000D02*
X122510000Y-73160000D01*
X114890000Y-69334000D02*
X114890000Y-68334000D01*
X116250000Y-68334000D02*
X116250000Y-69334000D01*
X122118000Y-103884000D02*
X123048000Y-103884000D01*
X125278000Y-103884000D02*
X124348000Y-103884000D01*
X125278000Y-103884000D02*
X125278000Y-101724000D01*
X122118000Y-103884000D02*
X122118000Y-102424000D01*
X122092000Y-108339000D02*
X122092000Y-109339000D01*
X120732000Y-109339000D02*
X120732000Y-108339000D01*
D11*
X107481667Y-69429048D02*
X107481667Y-68952857D01*
X107767381Y-69524286D02*
X106767381Y-69190953D01*
X107767381Y-68857619D01*
X107767381Y-68524286D02*
X106767381Y-68524286D01*
X106767381Y-68286191D01*
X106815000Y-68143333D01*
X106910238Y-68048095D01*
X107005476Y-68000476D01*
X107195952Y-67952857D01*
X107338810Y-67952857D01*
X107529286Y-68000476D01*
X107624524Y-68048095D01*
X107719762Y-68143333D01*
X107767381Y-68286191D01*
X107767381Y-68524286D01*
X107672143Y-66952857D02*
X107719762Y-67000476D01*
X107767381Y-67143333D01*
X107767381Y-67238571D01*
X107719762Y-67381429D01*
X107624524Y-67476667D01*
X107529286Y-67524286D01*
X107338810Y-67571905D01*
X107195952Y-67571905D01*
X107005476Y-67524286D01*
X106910238Y-67476667D01*
X106815000Y-67381429D01*
X106767381Y-67238571D01*
X106767381Y-67143333D01*
X106815000Y-67000476D01*
X106862619Y-66952857D01*
X107719762Y-66571905D02*
X107767381Y-66476667D01*
X107767381Y-66286191D01*
X107719762Y-66190952D01*
X107624524Y-66143333D01*
X107576905Y-66143333D01*
X107481667Y-66190952D01*
X107434048Y-66286191D01*
X107434048Y-66429048D01*
X107386429Y-66524286D01*
X107291190Y-66571905D01*
X107243571Y-66571905D01*
X107148333Y-66524286D01*
X107100714Y-66429048D01*
X107100714Y-66286191D01*
X107148333Y-66190952D01*
X107767381Y-65190952D02*
X107767381Y-65762381D01*
X107767381Y-65476667D02*
X106767381Y-65476667D01*
X106910238Y-65571905D01*
X107005476Y-65667143D01*
X107053095Y-65762381D01*
X110466143Y-94464047D02*
X110513762Y-94511666D01*
X110561381Y-94654523D01*
X110561381Y-94749761D01*
X110513762Y-94892619D01*
X110418524Y-94987857D01*
X110323286Y-95035476D01*
X110132810Y-95083095D01*
X109989952Y-95083095D01*
X109799476Y-95035476D01*
X109704238Y-94987857D01*
X109609000Y-94892619D01*
X109561381Y-94749761D01*
X109561381Y-94654523D01*
X109609000Y-94511666D01*
X109656619Y-94464047D01*
X110275667Y-94083095D02*
X110275667Y-93606904D01*
X110561381Y-94178333D02*
X109561381Y-93845000D01*
X110561381Y-93511666D01*
X110561381Y-93178333D02*
X109561381Y-93178333D01*
X110561381Y-92606904D01*
X109561381Y-92606904D01*
X110561381Y-91606904D02*
X110561381Y-92178333D01*
X110561381Y-91892619D02*
X109561381Y-91892619D01*
X109704238Y-91987857D01*
X109799476Y-92083095D01*
X109847095Y-92178333D01*
X133274381Y-113498190D02*
X132274381Y-113498190D01*
X133179143Y-112450571D02*
X133226762Y-112498190D01*
X133274381Y-112641047D01*
X133274381Y-112736285D01*
X133226762Y-112879143D01*
X133131524Y-112974381D01*
X133036286Y-113022000D01*
X132845810Y-113069619D01*
X132702952Y-113069619D01*
X132512476Y-113022000D01*
X132417238Y-112974381D01*
X132322000Y-112879143D01*
X132274381Y-112736285D01*
X132274381Y-112641047D01*
X132322000Y-112498190D01*
X132369619Y-112450571D01*
X132369619Y-112069619D02*
X132322000Y-112022000D01*
X132274381Y-111926762D01*
X132274381Y-111688666D01*
X132322000Y-111593428D01*
X132369619Y-111545809D01*
X132464857Y-111498190D01*
X132560095Y-111498190D01*
X132702952Y-111545809D01*
X133274381Y-112117238D01*
X133274381Y-111498190D01*
X111684381Y-113498190D02*
X110684381Y-113498190D01*
X111589143Y-112450571D02*
X111636762Y-112498190D01*
X111684381Y-112641047D01*
X111684381Y-112736285D01*
X111636762Y-112879143D01*
X111541524Y-112974381D01*
X111446286Y-113022000D01*
X111255810Y-113069619D01*
X111112952Y-113069619D01*
X110922476Y-113022000D01*
X110827238Y-112974381D01*
X110732000Y-112879143D01*
X110684381Y-112736285D01*
X110684381Y-112641047D01*
X110732000Y-112498190D01*
X110779619Y-112450571D01*
X110684381Y-112117238D02*
X110684381Y-111498190D01*
X111065333Y-111831524D01*
X111065333Y-111688666D01*
X111112952Y-111593428D01*
X111160571Y-111545809D01*
X111255810Y-111498190D01*
X111493905Y-111498190D01*
X111589143Y-111545809D01*
X111636762Y-111593428D01*
X111684381Y-111688666D01*
X111684381Y-111974381D01*
X111636762Y-112069619D01*
X111589143Y-112117238D01*
X136675905Y-67635381D02*
X136675905Y-66635381D01*
X137056858Y-66635381D01*
X137152096Y-66683000D01*
X137199715Y-66730619D01*
X137247334Y-66825857D01*
X137247334Y-66968714D01*
X137199715Y-67063952D01*
X137152096Y-67111571D01*
X137056858Y-67159190D01*
X136675905Y-67159190D01*
X137628286Y-66730619D02*
X137675905Y-66683000D01*
X137771143Y-66635381D01*
X138009239Y-66635381D01*
X138104477Y-66683000D01*
X138152096Y-66730619D01*
X138199715Y-66825857D01*
X138199715Y-66921095D01*
X138152096Y-67063952D01*
X137580667Y-67635381D01*
X138199715Y-67635381D01*
X108212286Y-110434381D02*
X108212286Y-109434381D01*
X108593239Y-109434381D01*
X108688477Y-109482000D01*
X108736096Y-109529619D01*
X108783715Y-109624857D01*
X108783715Y-109767714D01*
X108736096Y-109862952D01*
X108688477Y-109910571D01*
X108593239Y-109958190D01*
X108212286Y-109958190D01*
X109402762Y-109434381D02*
X109593239Y-109434381D01*
X109688477Y-109482000D01*
X109783715Y-109577238D01*
X109831334Y-109767714D01*
X109831334Y-110101048D01*
X109783715Y-110291524D01*
X109688477Y-110386762D01*
X109593239Y-110434381D01*
X109402762Y-110434381D01*
X109307524Y-110386762D01*
X109212286Y-110291524D01*
X109164667Y-110101048D01*
X109164667Y-109767714D01*
X109212286Y-109577238D01*
X109307524Y-109482000D01*
X109402762Y-109434381D01*
X110164667Y-109434381D02*
X110402762Y-110434381D01*
X110593239Y-109720095D01*
X110783715Y-110434381D01*
X111021810Y-109434381D01*
X111402762Y-109910571D02*
X111736096Y-109910571D01*
X111878953Y-110434381D02*
X111402762Y-110434381D01*
X111402762Y-109434381D01*
X111878953Y-109434381D01*
X112878953Y-110434381D02*
X112545619Y-109958190D01*
X112307524Y-110434381D02*
X112307524Y-109434381D01*
X112688477Y-109434381D01*
X112783715Y-109482000D01*
X112831334Y-109529619D01*
X112878953Y-109624857D01*
X112878953Y-109767714D01*
X112831334Y-109862952D01*
X112783715Y-109910571D01*
X112688477Y-109958190D01*
X112307524Y-109958190D01*
X113831334Y-110434381D02*
X113259905Y-110434381D01*
X113545619Y-110434381D02*
X113545619Y-109434381D01*
X113450381Y-109577238D01*
X113355143Y-109672476D01*
X113259905Y-109720095D01*
X137985809Y-106624381D02*
X137985809Y-105624381D01*
X138366762Y-105624381D01*
X138462000Y-105672000D01*
X138509619Y-105719619D01*
X138557238Y-105814857D01*
X138557238Y-105957714D01*
X138509619Y-106052952D01*
X138462000Y-106100571D01*
X138366762Y-106148190D01*
X137985809Y-106148190D01*
X138747714Y-106719619D02*
X139509619Y-106719619D01*
X140319143Y-106529143D02*
X140271524Y-106576762D01*
X140128667Y-106624381D01*
X140033429Y-106624381D01*
X139890571Y-106576762D01*
X139795333Y-106481524D01*
X139747714Y-106386286D01*
X139700095Y-106195810D01*
X139700095Y-106052952D01*
X139747714Y-105862476D01*
X139795333Y-105767238D01*
X139890571Y-105672000D01*
X140033429Y-105624381D01*
X140128667Y-105624381D01*
X140271524Y-105672000D01*
X140319143Y-105719619D01*
X140604857Y-105624381D02*
X141176286Y-105624381D01*
X140890571Y-106624381D02*
X140890571Y-105624381D01*
X141462000Y-106576762D02*
X141604857Y-106624381D01*
X141842953Y-106624381D01*
X141938191Y-106576762D01*
X141985810Y-106529143D01*
X142033429Y-106433905D01*
X142033429Y-106338667D01*
X141985810Y-106243429D01*
X141938191Y-106195810D01*
X141842953Y-106148190D01*
X141652476Y-106100571D01*
X141557238Y-106052952D01*
X141509619Y-106005333D01*
X141462000Y-105910095D01*
X141462000Y-105814857D01*
X141509619Y-105719619D01*
X141557238Y-105672000D01*
X141652476Y-105624381D01*
X141890572Y-105624381D01*
X142033429Y-105672000D01*
X142985810Y-106624381D02*
X142414381Y-106624381D01*
X142700095Y-106624381D02*
X142700095Y-105624381D01*
X142604857Y-105767238D01*
X142509619Y-105862476D01*
X142414381Y-105910095D01*
X143550000Y-109926381D02*
X143550000Y-108926381D01*
X143930953Y-108926381D01*
X144026191Y-108974000D01*
X144073810Y-109021619D01*
X144121429Y-109116857D01*
X144121429Y-109259714D01*
X144073810Y-109354952D01*
X144026191Y-109402571D01*
X143930953Y-109450190D01*
X143550000Y-109450190D01*
X144311905Y-110021619D02*
X145073810Y-110021619D01*
X145311905Y-109926381D02*
X145311905Y-108926381D01*
X145550000Y-108926381D01*
X145692858Y-108974000D01*
X145788096Y-109069238D01*
X145835715Y-109164476D01*
X145883334Y-109354952D01*
X145883334Y-109497810D01*
X145835715Y-109688286D01*
X145788096Y-109783524D01*
X145692858Y-109878762D01*
X145550000Y-109926381D01*
X145311905Y-109926381D01*
X146169048Y-108926381D02*
X146740477Y-108926381D01*
X146454762Y-109926381D02*
X146454762Y-108926381D01*
X147645239Y-109926381D02*
X147311905Y-109450190D01*
X147073810Y-109926381D02*
X147073810Y-108926381D01*
X147454763Y-108926381D01*
X147550001Y-108974000D01*
X147597620Y-109021619D01*
X147645239Y-109116857D01*
X147645239Y-109259714D01*
X147597620Y-109354952D01*
X147550001Y-109402571D01*
X147454763Y-109450190D01*
X147073810Y-109450190D01*
X148597620Y-109926381D02*
X148026191Y-109926381D01*
X148311905Y-109926381D02*
X148311905Y-108926381D01*
X148216667Y-109069238D01*
X148121429Y-109164476D01*
X148026191Y-109212095D01*
X134524762Y-71449619D02*
X134429524Y-71402000D01*
X134334286Y-71306762D01*
X134191429Y-71163905D01*
X134096190Y-71116286D01*
X134000952Y-71116286D01*
X134048571Y-71354381D02*
X133953333Y-71306762D01*
X133858095Y-71211524D01*
X133810476Y-71021048D01*
X133810476Y-70687714D01*
X133858095Y-70497238D01*
X133953333Y-70402000D01*
X134048571Y-70354381D01*
X134239048Y-70354381D01*
X134334286Y-70402000D01*
X134429524Y-70497238D01*
X134477143Y-70687714D01*
X134477143Y-71021048D01*
X134429524Y-71211524D01*
X134334286Y-71306762D01*
X134239048Y-71354381D01*
X134048571Y-71354381D01*
X135429524Y-71354381D02*
X134858095Y-71354381D01*
X135143809Y-71354381D02*
X135143809Y-70354381D01*
X135048571Y-70497238D01*
X134953333Y-70592476D01*
X134858095Y-70640095D01*
X130206762Y-71449619D02*
X130111524Y-71402000D01*
X130016286Y-71306762D01*
X129873429Y-71163905D01*
X129778190Y-71116286D01*
X129682952Y-71116286D01*
X129730571Y-71354381D02*
X129635333Y-71306762D01*
X129540095Y-71211524D01*
X129492476Y-71021048D01*
X129492476Y-70687714D01*
X129540095Y-70497238D01*
X129635333Y-70402000D01*
X129730571Y-70354381D01*
X129921048Y-70354381D01*
X130016286Y-70402000D01*
X130111524Y-70497238D01*
X130159143Y-70687714D01*
X130159143Y-71021048D01*
X130111524Y-71211524D01*
X130016286Y-71306762D01*
X129921048Y-71354381D01*
X129730571Y-71354381D01*
X130540095Y-70449619D02*
X130587714Y-70402000D01*
X130682952Y-70354381D01*
X130921048Y-70354381D01*
X131016286Y-70402000D01*
X131063905Y-70449619D01*
X131111524Y-70544857D01*
X131111524Y-70640095D01*
X131063905Y-70782952D01*
X130492476Y-71354381D01*
X131111524Y-71354381D01*
X117562381Y-97789905D02*
X118371905Y-97789905D01*
X118467143Y-97742286D01*
X118514762Y-97694667D01*
X118562381Y-97599429D01*
X118562381Y-97408952D01*
X118514762Y-97313714D01*
X118467143Y-97266095D01*
X118371905Y-97218476D01*
X117562381Y-97218476D01*
X117657619Y-96789905D02*
X117610000Y-96742286D01*
X117562381Y-96647048D01*
X117562381Y-96408952D01*
X117610000Y-96313714D01*
X117657619Y-96266095D01*
X117752857Y-96218476D01*
X117848095Y-96218476D01*
X117990952Y-96266095D01*
X118562381Y-96837524D01*
X118562381Y-96218476D01*
X148121810Y-67381381D02*
X148121810Y-66381381D01*
X148550381Y-67333762D02*
X148693238Y-67381381D01*
X148931334Y-67381381D01*
X149026572Y-67333762D01*
X149074191Y-67286143D01*
X149121810Y-67190905D01*
X149121810Y-67095667D01*
X149074191Y-67000429D01*
X149026572Y-66952810D01*
X148931334Y-66905190D01*
X148740857Y-66857571D01*
X148645619Y-66809952D01*
X148598000Y-66762333D01*
X148550381Y-66667095D01*
X148550381Y-66571857D01*
X148598000Y-66476619D01*
X148645619Y-66429000D01*
X148740857Y-66381381D01*
X148978953Y-66381381D01*
X149121810Y-66429000D01*
X149550381Y-67381381D02*
X149550381Y-66381381D01*
X149931334Y-66381381D01*
X150026572Y-66429000D01*
X150074191Y-66476619D01*
X150121810Y-66571857D01*
X150121810Y-66714714D01*
X150074191Y-66809952D01*
X150026572Y-66857571D01*
X149931334Y-66905190D01*
X149550381Y-66905190D01*
X128166905Y-102054921D02*
X128166905Y-101054921D01*
X128547858Y-101054921D01*
X128643096Y-101102540D01*
X128690715Y-101150159D01*
X128738334Y-101245397D01*
X128738334Y-101388254D01*
X128690715Y-101483492D01*
X128643096Y-101531111D01*
X128547858Y-101578730D01*
X128166905Y-101578730D01*
X129690715Y-102054921D02*
X129119286Y-102054921D01*
X129405000Y-102054921D02*
X129405000Y-101054921D01*
X129309762Y-101197778D01*
X129214524Y-101293016D01*
X129119286Y-101340635D01*
X127325381Y-85462714D02*
X126325381Y-85462714D01*
X126325381Y-85081761D01*
X126373000Y-84986523D01*
X126420619Y-84938904D01*
X126515857Y-84891285D01*
X126658714Y-84891285D01*
X126753952Y-84938904D01*
X126801571Y-84986523D01*
X126849190Y-85081761D01*
X126849190Y-85462714D01*
X126325381Y-84557952D02*
X127325381Y-84319857D01*
X126611095Y-84129380D01*
X127325381Y-83938904D01*
X126325381Y-83700809D01*
X127325381Y-83319857D02*
X126325381Y-83319857D01*
X127039667Y-82986523D01*
X126325381Y-82653190D01*
X127325381Y-82653190D01*
X126325381Y-81986524D02*
X126325381Y-81891285D01*
X126373000Y-81796047D01*
X126420619Y-81748428D01*
X126515857Y-81700809D01*
X126706333Y-81653190D01*
X126944429Y-81653190D01*
X127134905Y-81700809D01*
X127230143Y-81748428D01*
X127277762Y-81796047D01*
X127325381Y-81891285D01*
X127325381Y-81986524D01*
X127277762Y-82081762D01*
X127230143Y-82129381D01*
X127134905Y-82177000D01*
X126944429Y-82224619D01*
X126706333Y-82224619D01*
X126515857Y-82177000D01*
X126420619Y-82129381D01*
X126373000Y-82081762D01*
X126325381Y-81986524D01*
X127039667Y-81272238D02*
X127039667Y-80796047D01*
X127325381Y-81367476D02*
X126325381Y-81034143D01*
X127325381Y-80700809D01*
X127325381Y-79843666D02*
X127325381Y-80415095D01*
X127325381Y-80129381D02*
X126325381Y-80129381D01*
X126468238Y-80224619D01*
X126563476Y-80319857D01*
X126611095Y-80415095D01*
X138819286Y-77033381D02*
X138819286Y-76033381D01*
X139200239Y-76033381D01*
X139295477Y-76081000D01*
X139343096Y-76128619D01*
X139390715Y-76223857D01*
X139390715Y-76366714D01*
X139343096Y-76461952D01*
X139295477Y-76509571D01*
X139200239Y-76557190D01*
X138819286Y-76557190D01*
X139724048Y-76033381D02*
X139962143Y-77033381D01*
X140152620Y-76319095D01*
X140343096Y-77033381D01*
X140581191Y-76033381D01*
X140962143Y-77033381D02*
X140962143Y-76033381D01*
X141295477Y-76747667D01*
X141628810Y-76033381D01*
X141628810Y-77033381D01*
X142628810Y-77033381D02*
X142057381Y-77033381D01*
X142343095Y-77033381D02*
X142343095Y-76033381D01*
X142247857Y-76176238D01*
X142152619Y-76271476D01*
X142057381Y-76319095D01*
X143009762Y-76747667D02*
X143485953Y-76747667D01*
X142914524Y-77033381D02*
X143247857Y-76033381D01*
X143581191Y-77033381D01*
X144438334Y-77033381D02*
X143866905Y-77033381D01*
X144152619Y-77033381D02*
X144152619Y-76033381D01*
X144057381Y-76176238D01*
X143962143Y-76271476D01*
X143866905Y-76319095D01*
X132151381Y-85534143D02*
X131151381Y-85534143D01*
X131151381Y-85153190D01*
X131199000Y-85057952D01*
X131246619Y-85010333D01*
X131341857Y-84962714D01*
X131484714Y-84962714D01*
X131579952Y-85010333D01*
X131627571Y-85057952D01*
X131675190Y-85153190D01*
X131675190Y-85534143D01*
X131151381Y-84629381D02*
X132151381Y-84391286D01*
X131437095Y-84200809D01*
X132151381Y-84010333D01*
X131151381Y-83772238D01*
X132151381Y-83391286D02*
X131151381Y-83391286D01*
X131865667Y-83057952D01*
X131151381Y-82724619D01*
X132151381Y-82724619D01*
X132151381Y-81724619D02*
X132151381Y-82296048D01*
X132151381Y-82010334D02*
X131151381Y-82010334D01*
X131294238Y-82105572D01*
X131389476Y-82200810D01*
X131437095Y-82296048D01*
X131627571Y-80962714D02*
X131675190Y-80819857D01*
X131722810Y-80772238D01*
X131818048Y-80724619D01*
X131960905Y-80724619D01*
X132056143Y-80772238D01*
X132103762Y-80819857D01*
X132151381Y-80915095D01*
X132151381Y-81296048D01*
X131151381Y-81296048D01*
X131151381Y-80962714D01*
X131199000Y-80867476D01*
X131246619Y-80819857D01*
X131341857Y-80772238D01*
X131437095Y-80772238D01*
X131532333Y-80819857D01*
X131579952Y-80867476D01*
X131627571Y-80962714D01*
X131627571Y-81296048D01*
X132151381Y-79772238D02*
X132151381Y-80343667D01*
X132151381Y-80057953D02*
X131151381Y-80057953D01*
X131294238Y-80153191D01*
X131389476Y-80248429D01*
X131437095Y-80343667D01*
X118166048Y-76652381D02*
X118166048Y-75652381D01*
X118547001Y-75652381D01*
X118642239Y-75700000D01*
X118689858Y-75747619D01*
X118737477Y-75842857D01*
X118737477Y-75985714D01*
X118689858Y-76080952D01*
X118642239Y-76128571D01*
X118547001Y-76176190D01*
X118166048Y-76176190D01*
X119070810Y-75652381D02*
X119308905Y-76652381D01*
X119499382Y-75938095D01*
X119689858Y-76652381D01*
X119927953Y-75652381D01*
X120308905Y-76652381D02*
X120308905Y-75652381D01*
X120642239Y-76366667D01*
X120975572Y-75652381D01*
X120975572Y-76652381D01*
X121642238Y-75652381D02*
X121832715Y-75652381D01*
X121927953Y-75700000D01*
X122023191Y-75795238D01*
X122070810Y-75985714D01*
X122070810Y-76319048D01*
X122023191Y-76509524D01*
X121927953Y-76604762D01*
X121832715Y-76652381D01*
X121642238Y-76652381D01*
X121547000Y-76604762D01*
X121451762Y-76509524D01*
X121404143Y-76319048D01*
X121404143Y-75985714D01*
X121451762Y-75795238D01*
X121547000Y-75700000D01*
X121642238Y-75652381D01*
X123070810Y-76557143D02*
X123023191Y-76604762D01*
X122880334Y-76652381D01*
X122785096Y-76652381D01*
X122642238Y-76604762D01*
X122547000Y-76509524D01*
X122499381Y-76414286D01*
X122451762Y-76223810D01*
X122451762Y-76080952D01*
X122499381Y-75890476D01*
X122547000Y-75795238D01*
X122642238Y-75700000D01*
X122785096Y-75652381D01*
X122880334Y-75652381D01*
X123023191Y-75700000D01*
X123070810Y-75747619D01*
X123689857Y-75652381D02*
X123785096Y-75652381D01*
X123880334Y-75700000D01*
X123927953Y-75747619D01*
X123975572Y-75842857D01*
X124023191Y-76033333D01*
X124023191Y-76271429D01*
X123975572Y-76461905D01*
X123927953Y-76557143D01*
X123880334Y-76604762D01*
X123785096Y-76652381D01*
X123689857Y-76652381D01*
X123594619Y-76604762D01*
X123547000Y-76557143D01*
X123499381Y-76461905D01*
X123451762Y-76271429D01*
X123451762Y-76033333D01*
X123499381Y-75842857D01*
X123547000Y-75747619D01*
X123594619Y-75700000D01*
X123689857Y-75652381D01*
X124785096Y-76128571D02*
X124927953Y-76176190D01*
X124975572Y-76223810D01*
X125023191Y-76319048D01*
X125023191Y-76461905D01*
X124975572Y-76557143D01*
X124927953Y-76604762D01*
X124832715Y-76652381D01*
X124451762Y-76652381D01*
X124451762Y-75652381D01*
X124785096Y-75652381D01*
X124880334Y-75700000D01*
X124927953Y-75747619D01*
X124975572Y-75842857D01*
X124975572Y-75938095D01*
X124927953Y-76033333D01*
X124880334Y-76080952D01*
X124785096Y-76128571D01*
X124451762Y-76128571D01*
X125975572Y-76652381D02*
X125404143Y-76652381D01*
X125689857Y-76652381D02*
X125689857Y-75652381D01*
X125594619Y-75795238D01*
X125499381Y-75890476D01*
X125404143Y-75938095D01*
X135961381Y-83001952D02*
X134961381Y-83001952D01*
X134961381Y-82620999D01*
X135009000Y-82525761D01*
X135056619Y-82478142D01*
X135151857Y-82430523D01*
X135294714Y-82430523D01*
X135389952Y-82478142D01*
X135437571Y-82525761D01*
X135485190Y-82620999D01*
X135485190Y-83001952D01*
X134961381Y-82097190D02*
X135961381Y-81859095D01*
X135247095Y-81668618D01*
X135961381Y-81478142D01*
X134961381Y-81240047D01*
X135961381Y-80859095D02*
X134961381Y-80859095D01*
X135675667Y-80525761D01*
X134961381Y-80192428D01*
X135961381Y-80192428D01*
X134961381Y-79525762D02*
X134961381Y-79335285D01*
X135009000Y-79240047D01*
X135104238Y-79144809D01*
X135294714Y-79097190D01*
X135628048Y-79097190D01*
X135818524Y-79144809D01*
X135913762Y-79240047D01*
X135961381Y-79335285D01*
X135961381Y-79525762D01*
X135913762Y-79621000D01*
X135818524Y-79716238D01*
X135628048Y-79763857D01*
X135294714Y-79763857D01*
X135104238Y-79716238D01*
X135009000Y-79621000D01*
X134961381Y-79525762D01*
X135866143Y-78097190D02*
X135913762Y-78144809D01*
X135961381Y-78287666D01*
X135961381Y-78382904D01*
X135913762Y-78525762D01*
X135818524Y-78621000D01*
X135723286Y-78668619D01*
X135532810Y-78716238D01*
X135389952Y-78716238D01*
X135199476Y-78668619D01*
X135104238Y-78621000D01*
X135009000Y-78525762D01*
X134961381Y-78382904D01*
X134961381Y-78287666D01*
X135009000Y-78144809D01*
X135056619Y-78097190D01*
X135961381Y-77144809D02*
X135961381Y-77716238D01*
X135961381Y-77430524D02*
X134961381Y-77430524D01*
X135104238Y-77525762D01*
X135199476Y-77621000D01*
X135247095Y-77716238D01*
X135437571Y-76382904D02*
X135485190Y-76240047D01*
X135532810Y-76192428D01*
X135628048Y-76144809D01*
X135770905Y-76144809D01*
X135866143Y-76192428D01*
X135913762Y-76240047D01*
X135961381Y-76335285D01*
X135961381Y-76716238D01*
X134961381Y-76716238D01*
X134961381Y-76382904D01*
X135009000Y-76287666D01*
X135056619Y-76240047D01*
X135151857Y-76192428D01*
X135247095Y-76192428D01*
X135342333Y-76240047D01*
X135389952Y-76287666D01*
X135437571Y-76382904D01*
X135437571Y-76716238D01*
X135961381Y-75192428D02*
X135961381Y-75763857D01*
X135961381Y-75478143D02*
X134961381Y-75478143D01*
X135104238Y-75573381D01*
X135199476Y-75668619D01*
X135247095Y-75763857D01*
X148780667Y-104544762D02*
X148923524Y-104592381D01*
X149161620Y-104592381D01*
X149256858Y-104544762D01*
X149304477Y-104497143D01*
X149352096Y-104401905D01*
X149352096Y-104306667D01*
X149304477Y-104211429D01*
X149256858Y-104163810D01*
X149161620Y-104116190D01*
X148971143Y-104068571D01*
X148875905Y-104020952D01*
X148828286Y-103973333D01*
X148780667Y-103878095D01*
X148780667Y-103782857D01*
X148828286Y-103687619D01*
X148875905Y-103640000D01*
X148971143Y-103592381D01*
X149209239Y-103592381D01*
X149352096Y-103640000D01*
X149685429Y-103592381D02*
X149923524Y-104592381D01*
X150114001Y-103878095D01*
X150304477Y-104592381D01*
X150542572Y-103592381D01*
X151447334Y-104592381D02*
X150875905Y-104592381D01*
X151161619Y-104592381D02*
X151161619Y-103592381D01*
X151066381Y-103735238D01*
X150971143Y-103830476D01*
X150875905Y-103878095D01*
X148653667Y-89558762D02*
X148796524Y-89606381D01*
X149034620Y-89606381D01*
X149129858Y-89558762D01*
X149177477Y-89511143D01*
X149225096Y-89415905D01*
X149225096Y-89320667D01*
X149177477Y-89225429D01*
X149129858Y-89177810D01*
X149034620Y-89130190D01*
X148844143Y-89082571D01*
X148748905Y-89034952D01*
X148701286Y-88987333D01*
X148653667Y-88892095D01*
X148653667Y-88796857D01*
X148701286Y-88701619D01*
X148748905Y-88654000D01*
X148844143Y-88606381D01*
X149082239Y-88606381D01*
X149225096Y-88654000D01*
X149558429Y-88606381D02*
X149796524Y-89606381D01*
X149987001Y-88892095D01*
X150177477Y-89606381D01*
X150415572Y-88606381D01*
X150748905Y-88701619D02*
X150796524Y-88654000D01*
X150891762Y-88606381D01*
X151129858Y-88606381D01*
X151225096Y-88654000D01*
X151272715Y-88701619D01*
X151320334Y-88796857D01*
X151320334Y-88892095D01*
X151272715Y-89034952D01*
X150701286Y-89606381D01*
X151320334Y-89606381D01*
X148653667Y-97178762D02*
X148796524Y-97226381D01*
X149034620Y-97226381D01*
X149129858Y-97178762D01*
X149177477Y-97131143D01*
X149225096Y-97035905D01*
X149225096Y-96940667D01*
X149177477Y-96845429D01*
X149129858Y-96797810D01*
X149034620Y-96750190D01*
X148844143Y-96702571D01*
X148748905Y-96654952D01*
X148701286Y-96607333D01*
X148653667Y-96512095D01*
X148653667Y-96416857D01*
X148701286Y-96321619D01*
X148748905Y-96274000D01*
X148844143Y-96226381D01*
X149082239Y-96226381D01*
X149225096Y-96274000D01*
X149558429Y-96226381D02*
X149796524Y-97226381D01*
X149987001Y-96512095D01*
X150177477Y-97226381D01*
X150415572Y-96226381D01*
X150701286Y-96226381D02*
X151320334Y-96226381D01*
X150987000Y-96607333D01*
X151129858Y-96607333D01*
X151225096Y-96654952D01*
X151272715Y-96702571D01*
X151320334Y-96797810D01*
X151320334Y-97035905D01*
X151272715Y-97131143D01*
X151225096Y-97178762D01*
X151129858Y-97226381D01*
X150844143Y-97226381D01*
X150748905Y-97178762D01*
X150701286Y-97131143D01*
X148653667Y-81938762D02*
X148796524Y-81986381D01*
X149034620Y-81986381D01*
X149129858Y-81938762D01*
X149177477Y-81891143D01*
X149225096Y-81795905D01*
X149225096Y-81700667D01*
X149177477Y-81605429D01*
X149129858Y-81557810D01*
X149034620Y-81510190D01*
X148844143Y-81462571D01*
X148748905Y-81414952D01*
X148701286Y-81367333D01*
X148653667Y-81272095D01*
X148653667Y-81176857D01*
X148701286Y-81081619D01*
X148748905Y-81034000D01*
X148844143Y-80986381D01*
X149082239Y-80986381D01*
X149225096Y-81034000D01*
X149558429Y-80986381D02*
X149796524Y-81986381D01*
X149987001Y-81272095D01*
X150177477Y-81986381D01*
X150415572Y-80986381D01*
X151225096Y-81319714D02*
X151225096Y-81986381D01*
X150987000Y-80938762D02*
X150748905Y-81653048D01*
X151367953Y-81653048D01*
X114657143Y-83827857D02*
X114704762Y-83875476D01*
X114752381Y-84018333D01*
X114752381Y-84113571D01*
X114704762Y-84256429D01*
X114609524Y-84351667D01*
X114514286Y-84399286D01*
X114323810Y-84446905D01*
X114180952Y-84446905D01*
X113990476Y-84399286D01*
X113895238Y-84351667D01*
X113800000Y-84256429D01*
X113752381Y-84113571D01*
X113752381Y-84018333D01*
X113800000Y-83875476D01*
X113847619Y-83827857D01*
X114752381Y-82875476D02*
X114752381Y-83446905D01*
X114752381Y-83161191D02*
X113752381Y-83161191D01*
X113895238Y-83256429D01*
X113990476Y-83351667D01*
X114038095Y-83446905D01*
X113752381Y-82256429D02*
X113752381Y-82161190D01*
X113800000Y-82065952D01*
X113847619Y-82018333D01*
X113942857Y-81970714D01*
X114133333Y-81923095D01*
X114371429Y-81923095D01*
X114561905Y-81970714D01*
X114657143Y-82018333D01*
X114704762Y-82065952D01*
X114752381Y-82161190D01*
X114752381Y-82256429D01*
X114704762Y-82351667D01*
X114657143Y-82399286D01*
X114561905Y-82446905D01*
X114371429Y-82494524D01*
X114133333Y-82494524D01*
X113942857Y-82446905D01*
X113847619Y-82399286D01*
X113800000Y-82351667D01*
X113752381Y-82256429D01*
X124944143Y-83700857D02*
X124991762Y-83748476D01*
X125039381Y-83891333D01*
X125039381Y-83986571D01*
X124991762Y-84129429D01*
X124896524Y-84224667D01*
X124801286Y-84272286D01*
X124610810Y-84319905D01*
X124467952Y-84319905D01*
X124277476Y-84272286D01*
X124182238Y-84224667D01*
X124087000Y-84129429D01*
X124039381Y-83986571D01*
X124039381Y-83891333D01*
X124087000Y-83748476D01*
X124134619Y-83700857D01*
X125039381Y-82748476D02*
X125039381Y-83319905D01*
X125039381Y-83034191D02*
X124039381Y-83034191D01*
X124182238Y-83129429D01*
X124277476Y-83224667D01*
X124325095Y-83319905D01*
X125039381Y-81796095D02*
X125039381Y-82367524D01*
X125039381Y-82081810D02*
X124039381Y-82081810D01*
X124182238Y-82177048D01*
X124277476Y-82272286D01*
X124325095Y-82367524D01*
X114657143Y-79128857D02*
X114704762Y-79176476D01*
X114752381Y-79319333D01*
X114752381Y-79414571D01*
X114704762Y-79557429D01*
X114609524Y-79652667D01*
X114514286Y-79700286D01*
X114323810Y-79747905D01*
X114180952Y-79747905D01*
X113990476Y-79700286D01*
X113895238Y-79652667D01*
X113800000Y-79557429D01*
X113752381Y-79414571D01*
X113752381Y-79319333D01*
X113800000Y-79176476D01*
X113847619Y-79128857D01*
X114752381Y-78176476D02*
X114752381Y-78747905D01*
X114752381Y-78462191D02*
X113752381Y-78462191D01*
X113895238Y-78557429D01*
X113990476Y-78652667D01*
X114038095Y-78747905D01*
X113847619Y-77795524D02*
X113800000Y-77747905D01*
X113752381Y-77652667D01*
X113752381Y-77414571D01*
X113800000Y-77319333D01*
X113847619Y-77271714D01*
X113942857Y-77224095D01*
X114038095Y-77224095D01*
X114180952Y-77271714D01*
X114752381Y-77843143D01*
X114752381Y-77224095D01*
X124797143Y-79382857D02*
X124844762Y-79430476D01*
X124892381Y-79573333D01*
X124892381Y-79668571D01*
X124844762Y-79811429D01*
X124749524Y-79906667D01*
X124654286Y-79954286D01*
X124463810Y-80001905D01*
X124320952Y-80001905D01*
X124130476Y-79954286D01*
X124035238Y-79906667D01*
X123940000Y-79811429D01*
X123892381Y-79668571D01*
X123892381Y-79573333D01*
X123940000Y-79430476D01*
X123987619Y-79382857D01*
X124892381Y-78430476D02*
X124892381Y-79001905D01*
X124892381Y-78716191D02*
X123892381Y-78716191D01*
X124035238Y-78811429D01*
X124130476Y-78906667D01*
X124178095Y-79001905D01*
X123892381Y-78097143D02*
X123892381Y-77478095D01*
X124273333Y-77811429D01*
X124273333Y-77668571D01*
X124320952Y-77573333D01*
X124368571Y-77525714D01*
X124463810Y-77478095D01*
X124701905Y-77478095D01*
X124797143Y-77525714D01*
X124844762Y-77573333D01*
X124892381Y-77668571D01*
X124892381Y-77954286D01*
X124844762Y-78049524D01*
X124797143Y-78097143D01*
X114637143Y-74302857D02*
X114684762Y-74350476D01*
X114732381Y-74493333D01*
X114732381Y-74588571D01*
X114684762Y-74731429D01*
X114589524Y-74826667D01*
X114494286Y-74874286D01*
X114303810Y-74921905D01*
X114160952Y-74921905D01*
X113970476Y-74874286D01*
X113875238Y-74826667D01*
X113780000Y-74731429D01*
X113732381Y-74588571D01*
X113732381Y-74493333D01*
X113780000Y-74350476D01*
X113827619Y-74302857D01*
X114732381Y-73350476D02*
X114732381Y-73921905D01*
X114732381Y-73636191D02*
X113732381Y-73636191D01*
X113875238Y-73731429D01*
X113970476Y-73826667D01*
X114018095Y-73921905D01*
X114065714Y-72493333D02*
X114732381Y-72493333D01*
X113684762Y-72731429D02*
X114399048Y-72969524D01*
X114399048Y-72350476D01*
X122257143Y-69476857D02*
X122304762Y-69524476D01*
X122352381Y-69667333D01*
X122352381Y-69762571D01*
X122304762Y-69905429D01*
X122209524Y-70000667D01*
X122114286Y-70048286D01*
X121923810Y-70095905D01*
X121780952Y-70095905D01*
X121590476Y-70048286D01*
X121495238Y-70000667D01*
X121400000Y-69905429D01*
X121352381Y-69762571D01*
X121352381Y-69667333D01*
X121400000Y-69524476D01*
X121447619Y-69476857D01*
X122352381Y-68524476D02*
X122352381Y-69095905D01*
X122352381Y-68810191D02*
X121352381Y-68810191D01*
X121495238Y-68905429D01*
X121590476Y-69000667D01*
X121638095Y-69095905D01*
X121352381Y-67619714D02*
X121352381Y-68095905D01*
X121828571Y-68143524D01*
X121780952Y-68095905D01*
X121733333Y-68000667D01*
X121733333Y-67762571D01*
X121780952Y-67667333D01*
X121828571Y-67619714D01*
X121923810Y-67572095D01*
X122161905Y-67572095D01*
X122257143Y-67619714D01*
X122304762Y-67667333D01*
X122352381Y-67762571D01*
X122352381Y-68000667D01*
X122304762Y-68095905D01*
X122257143Y-68143524D01*
X114637143Y-69476857D02*
X114684762Y-69524476D01*
X114732381Y-69667333D01*
X114732381Y-69762571D01*
X114684762Y-69905429D01*
X114589524Y-70000667D01*
X114494286Y-70048286D01*
X114303810Y-70095905D01*
X114160952Y-70095905D01*
X113970476Y-70048286D01*
X113875238Y-70000667D01*
X113780000Y-69905429D01*
X113732381Y-69762571D01*
X113732381Y-69667333D01*
X113780000Y-69524476D01*
X113827619Y-69476857D01*
X114732381Y-68524476D02*
X114732381Y-69095905D01*
X114732381Y-68810191D02*
X113732381Y-68810191D01*
X113875238Y-68905429D01*
X113970476Y-69000667D01*
X114018095Y-69095905D01*
X113732381Y-67667333D02*
X113732381Y-67857810D01*
X113780000Y-67953048D01*
X113827619Y-68000667D01*
X113970476Y-68095905D01*
X114160952Y-68143524D01*
X114541905Y-68143524D01*
X114637143Y-68095905D01*
X114684762Y-68048286D01*
X114732381Y-67953048D01*
X114732381Y-67762571D01*
X114684762Y-67667333D01*
X114637143Y-67619714D01*
X114541905Y-67572095D01*
X114303810Y-67572095D01*
X114208571Y-67619714D01*
X114160952Y-67667333D01*
X114113333Y-67762571D01*
X114113333Y-67953048D01*
X114160952Y-68048286D01*
X114208571Y-68095905D01*
X114303810Y-68143524D01*
X128353143Y-74302857D02*
X128400762Y-74350476D01*
X128448381Y-74493333D01*
X128448381Y-74588571D01*
X128400762Y-74731429D01*
X128305524Y-74826667D01*
X128210286Y-74874286D01*
X128019810Y-74921905D01*
X127876952Y-74921905D01*
X127686476Y-74874286D01*
X127591238Y-74826667D01*
X127496000Y-74731429D01*
X127448381Y-74588571D01*
X127448381Y-74493333D01*
X127496000Y-74350476D01*
X127543619Y-74302857D01*
X128448381Y-73350476D02*
X128448381Y-73921905D01*
X128448381Y-73636191D02*
X127448381Y-73636191D01*
X127591238Y-73731429D01*
X127686476Y-73826667D01*
X127734095Y-73921905D01*
X127876952Y-72779048D02*
X127829333Y-72874286D01*
X127781714Y-72921905D01*
X127686476Y-72969524D01*
X127638857Y-72969524D01*
X127543619Y-72921905D01*
X127496000Y-72874286D01*
X127448381Y-72779048D01*
X127448381Y-72588571D01*
X127496000Y-72493333D01*
X127543619Y-72445714D01*
X127638857Y-72398095D01*
X127686476Y-72398095D01*
X127781714Y-72445714D01*
X127829333Y-72493333D01*
X127876952Y-72588571D01*
X127876952Y-72779048D01*
X127924571Y-72874286D01*
X127972190Y-72921905D01*
X128067429Y-72969524D01*
X128257905Y-72969524D01*
X128353143Y-72921905D01*
X128400762Y-72874286D01*
X128448381Y-72779048D01*
X128448381Y-72588571D01*
X128400762Y-72493333D01*
X128353143Y-72445714D01*
X128257905Y-72398095D01*
X128067429Y-72398095D01*
X127972190Y-72445714D01*
X127924571Y-72493333D01*
X127876952Y-72588571D01*
X122954381Y-108878666D02*
X122478190Y-109212000D01*
X122954381Y-109450095D02*
X121954381Y-109450095D01*
X121954381Y-109069142D01*
X122002000Y-108973904D01*
X122049619Y-108926285D01*
X122144857Y-108878666D01*
X122287714Y-108878666D01*
X122382952Y-108926285D01*
X122430571Y-108973904D01*
X122478190Y-109069142D01*
X122478190Y-109450095D01*
X122954381Y-107926285D02*
X122954381Y-108497714D01*
X122954381Y-108212000D02*
X121954381Y-108212000D01*
X122097238Y-108307238D01*
X122192476Y-108402476D01*
X122240095Y-108497714D01*
X125494381Y-108878666D02*
X125018190Y-109212000D01*
X125494381Y-109450095D02*
X124494381Y-109450095D01*
X124494381Y-109069142D01*
X124542000Y-108973904D01*
X124589619Y-108926285D01*
X124684857Y-108878666D01*
X124827714Y-108878666D01*
X124922952Y-108926285D01*
X124970571Y-108973904D01*
X125018190Y-109069142D01*
X125018190Y-109450095D01*
X124589619Y-108497714D02*
X124542000Y-108450095D01*
X124494381Y-108354857D01*
X124494381Y-108116761D01*
X124542000Y-108021523D01*
X124589619Y-107973904D01*
X124684857Y-107926285D01*
X124780095Y-107926285D01*
X124922952Y-107973904D01*
X125494381Y-108545333D01*
X125494381Y-107926285D01*
X128034381Y-108878666D02*
X127558190Y-109212000D01*
X128034381Y-109450095D02*
X127034381Y-109450095D01*
X127034381Y-109069142D01*
X127082000Y-108973904D01*
X127129619Y-108926285D01*
X127224857Y-108878666D01*
X127367714Y-108878666D01*
X127462952Y-108926285D01*
X127510571Y-108973904D01*
X127558190Y-109069142D01*
X127558190Y-109450095D01*
X127034381Y-108545333D02*
X127034381Y-107926285D01*
X127415333Y-108259619D01*
X127415333Y-108116761D01*
X127462952Y-108021523D01*
X127510571Y-107973904D01*
X127605810Y-107926285D01*
X127843905Y-107926285D01*
X127939143Y-107973904D01*
X127986762Y-108021523D01*
X128034381Y-108116761D01*
X128034381Y-108402476D01*
X127986762Y-108497714D01*
X127939143Y-108545333D01*
X133114381Y-108878666D02*
X132638190Y-109212000D01*
X133114381Y-109450095D02*
X132114381Y-109450095D01*
X132114381Y-109069142D01*
X132162000Y-108973904D01*
X132209619Y-108926285D01*
X132304857Y-108878666D01*
X132447714Y-108878666D01*
X132542952Y-108926285D01*
X132590571Y-108973904D01*
X132638190Y-109069142D01*
X132638190Y-109450095D01*
X132114381Y-107973904D02*
X132114381Y-108450095D01*
X132590571Y-108497714D01*
X132542952Y-108450095D01*
X132495333Y-108354857D01*
X132495333Y-108116761D01*
X132542952Y-108021523D01*
X132590571Y-107973904D01*
X132685810Y-107926285D01*
X132923905Y-107926285D01*
X133019143Y-107973904D01*
X133066762Y-108021523D01*
X133114381Y-108116761D01*
X133114381Y-108354857D01*
X133066762Y-108450095D01*
X133019143Y-108497714D01*
X110000381Y-97448666D02*
X109524190Y-97782000D01*
X110000381Y-98020095D02*
X109000381Y-98020095D01*
X109000381Y-97639142D01*
X109048000Y-97543904D01*
X109095619Y-97496285D01*
X109190857Y-97448666D01*
X109333714Y-97448666D01*
X109428952Y-97496285D01*
X109476571Y-97543904D01*
X109524190Y-97639142D01*
X109524190Y-98020095D01*
X109000381Y-96591523D02*
X109000381Y-96782000D01*
X109048000Y-96877238D01*
X109095619Y-96924857D01*
X109238476Y-97020095D01*
X109428952Y-97067714D01*
X109809905Y-97067714D01*
X109905143Y-97020095D01*
X109952762Y-96972476D01*
X110000381Y-96877238D01*
X110000381Y-96686761D01*
X109952762Y-96591523D01*
X109905143Y-96543904D01*
X109809905Y-96496285D01*
X109571810Y-96496285D01*
X109476571Y-96543904D01*
X109428952Y-96591523D01*
X109381333Y-96686761D01*
X109381333Y-96877238D01*
X109428952Y-96972476D01*
X109476571Y-97020095D01*
X109571810Y-97067714D01*
X134056381Y-80303666D02*
X133580190Y-80637000D01*
X134056381Y-80875095D02*
X133056381Y-80875095D01*
X133056381Y-80494142D01*
X133104000Y-80398904D01*
X133151619Y-80351285D01*
X133246857Y-80303666D01*
X133389714Y-80303666D01*
X133484952Y-80351285D01*
X133532571Y-80398904D01*
X133580190Y-80494142D01*
X133580190Y-80875095D01*
X133056381Y-79970333D02*
X133056381Y-79303666D01*
X134056381Y-79732238D01*
X129738381Y-80303666D02*
X129262190Y-80637000D01*
X129738381Y-80875095D02*
X128738381Y-80875095D01*
X128738381Y-80494142D01*
X128786000Y-80398904D01*
X128833619Y-80351285D01*
X128928857Y-80303666D01*
X129071714Y-80303666D01*
X129166952Y-80351285D01*
X129214571Y-80398904D01*
X129262190Y-80494142D01*
X129262190Y-80875095D01*
X129166952Y-79732238D02*
X129119333Y-79827476D01*
X129071714Y-79875095D01*
X128976476Y-79922714D01*
X128928857Y-79922714D01*
X128833619Y-79875095D01*
X128786000Y-79827476D01*
X128738381Y-79732238D01*
X128738381Y-79541761D01*
X128786000Y-79446523D01*
X128833619Y-79398904D01*
X128928857Y-79351285D01*
X128976476Y-79351285D01*
X129071714Y-79398904D01*
X129119333Y-79446523D01*
X129166952Y-79541761D01*
X129166952Y-79732238D01*
X129214571Y-79827476D01*
X129262190Y-79875095D01*
X129357429Y-79922714D01*
X129547905Y-79922714D01*
X129643143Y-79875095D01*
X129690762Y-79827476D01*
X129738381Y-79732238D01*
X129738381Y-79541761D01*
X129690762Y-79446523D01*
X129643143Y-79398904D01*
X129547905Y-79351285D01*
X129357429Y-79351285D01*
X129262190Y-79398904D01*
X129214571Y-79446523D01*
X129166952Y-79541761D01*
X112212381Y-69476857D02*
X111736190Y-69810191D01*
X112212381Y-70048286D02*
X111212381Y-70048286D01*
X111212381Y-69667333D01*
X111260000Y-69572095D01*
X111307619Y-69524476D01*
X111402857Y-69476857D01*
X111545714Y-69476857D01*
X111640952Y-69524476D01*
X111688571Y-69572095D01*
X111736190Y-69667333D01*
X111736190Y-70048286D01*
X112212381Y-68524476D02*
X112212381Y-69095905D01*
X112212381Y-68810191D02*
X111212381Y-68810191D01*
X111355238Y-68905429D01*
X111450476Y-69000667D01*
X111498095Y-69095905D01*
X111212381Y-67619714D02*
X111212381Y-68095905D01*
X111688571Y-68143524D01*
X111640952Y-68095905D01*
X111593333Y-68000667D01*
X111593333Y-67762571D01*
X111640952Y-67667333D01*
X111688571Y-67619714D01*
X111783810Y-67572095D01*
X112021905Y-67572095D01*
X112117143Y-67619714D01*
X112164762Y-67667333D01*
X112212381Y-67762571D01*
X112212381Y-68000667D01*
X112164762Y-68095905D01*
X112117143Y-68143524D01*
X119832381Y-69476857D02*
X119356190Y-69810191D01*
X119832381Y-70048286D02*
X118832381Y-70048286D01*
X118832381Y-69667333D01*
X118880000Y-69572095D01*
X118927619Y-69524476D01*
X119022857Y-69476857D01*
X119165714Y-69476857D01*
X119260952Y-69524476D01*
X119308571Y-69572095D01*
X119356190Y-69667333D01*
X119356190Y-70048286D01*
X119832381Y-68524476D02*
X119832381Y-69095905D01*
X119832381Y-68810191D02*
X118832381Y-68810191D01*
X118975238Y-68905429D01*
X119070476Y-69000667D01*
X119118095Y-69095905D01*
X118832381Y-67667333D02*
X118832381Y-67857810D01*
X118880000Y-67953048D01*
X118927619Y-68000667D01*
X119070476Y-68095905D01*
X119260952Y-68143524D01*
X119641905Y-68143524D01*
X119737143Y-68095905D01*
X119784762Y-68048286D01*
X119832381Y-67953048D01*
X119832381Y-67762571D01*
X119784762Y-67667333D01*
X119737143Y-67619714D01*
X119641905Y-67572095D01*
X119403810Y-67572095D01*
X119308571Y-67619714D01*
X119260952Y-67667333D01*
X119213333Y-67762571D01*
X119213333Y-67953048D01*
X119260952Y-68048286D01*
X119308571Y-68095905D01*
X119403810Y-68143524D01*
X112212381Y-74302857D02*
X111736190Y-74636191D01*
X112212381Y-74874286D02*
X111212381Y-74874286D01*
X111212381Y-74493333D01*
X111260000Y-74398095D01*
X111307619Y-74350476D01*
X111402857Y-74302857D01*
X111545714Y-74302857D01*
X111640952Y-74350476D01*
X111688571Y-74398095D01*
X111736190Y-74493333D01*
X111736190Y-74874286D01*
X112212381Y-73350476D02*
X112212381Y-73921905D01*
X112212381Y-73636191D02*
X111212381Y-73636191D01*
X111355238Y-73731429D01*
X111450476Y-73826667D01*
X111498095Y-73921905D01*
X111212381Y-73017143D02*
X111212381Y-72350476D01*
X112212381Y-72779048D01*
X120340381Y-74175857D02*
X119864190Y-74509191D01*
X120340381Y-74747286D02*
X119340381Y-74747286D01*
X119340381Y-74366333D01*
X119388000Y-74271095D01*
X119435619Y-74223476D01*
X119530857Y-74175857D01*
X119673714Y-74175857D01*
X119768952Y-74223476D01*
X119816571Y-74271095D01*
X119864190Y-74366333D01*
X119864190Y-74747286D01*
X120340381Y-73223476D02*
X120340381Y-73794905D01*
X120340381Y-73509191D02*
X119340381Y-73509191D01*
X119483238Y-73604429D01*
X119578476Y-73699667D01*
X119626095Y-73794905D01*
X119768952Y-72652048D02*
X119721333Y-72747286D01*
X119673714Y-72794905D01*
X119578476Y-72842524D01*
X119530857Y-72842524D01*
X119435619Y-72794905D01*
X119388000Y-72747286D01*
X119340381Y-72652048D01*
X119340381Y-72461571D01*
X119388000Y-72366333D01*
X119435619Y-72318714D01*
X119530857Y-72271095D01*
X119578476Y-72271095D01*
X119673714Y-72318714D01*
X119721333Y-72366333D01*
X119768952Y-72461571D01*
X119768952Y-72652048D01*
X119816571Y-72747286D01*
X119864190Y-72794905D01*
X119959429Y-72842524D01*
X120149905Y-72842524D01*
X120245143Y-72794905D01*
X120292762Y-72747286D01*
X120340381Y-72652048D01*
X120340381Y-72461571D01*
X120292762Y-72366333D01*
X120245143Y-72318714D01*
X120149905Y-72271095D01*
X119959429Y-72271095D01*
X119864190Y-72318714D01*
X119816571Y-72366333D01*
X119768952Y-72461571D01*
X112339381Y-79128857D02*
X111863190Y-79462191D01*
X112339381Y-79700286D02*
X111339381Y-79700286D01*
X111339381Y-79319333D01*
X111387000Y-79224095D01*
X111434619Y-79176476D01*
X111529857Y-79128857D01*
X111672714Y-79128857D01*
X111767952Y-79176476D01*
X111815571Y-79224095D01*
X111863190Y-79319333D01*
X111863190Y-79700286D01*
X112339381Y-78176476D02*
X112339381Y-78747905D01*
X112339381Y-78462191D02*
X111339381Y-78462191D01*
X111482238Y-78557429D01*
X111577476Y-78652667D01*
X111625095Y-78747905D01*
X112339381Y-77700286D02*
X112339381Y-77509810D01*
X112291762Y-77414571D01*
X112244143Y-77366952D01*
X112101286Y-77271714D01*
X111910810Y-77224095D01*
X111529857Y-77224095D01*
X111434619Y-77271714D01*
X111387000Y-77319333D01*
X111339381Y-77414571D01*
X111339381Y-77605048D01*
X111387000Y-77700286D01*
X111434619Y-77747905D01*
X111529857Y-77795524D01*
X111767952Y-77795524D01*
X111863190Y-77747905D01*
X111910810Y-77700286D01*
X111958429Y-77605048D01*
X111958429Y-77414571D01*
X111910810Y-77319333D01*
X111863190Y-77271714D01*
X111767952Y-77224095D01*
X119959381Y-79382857D02*
X119483190Y-79716191D01*
X119959381Y-79954286D02*
X118959381Y-79954286D01*
X118959381Y-79573333D01*
X119007000Y-79478095D01*
X119054619Y-79430476D01*
X119149857Y-79382857D01*
X119292714Y-79382857D01*
X119387952Y-79430476D01*
X119435571Y-79478095D01*
X119483190Y-79573333D01*
X119483190Y-79954286D01*
X119054619Y-79001905D02*
X119007000Y-78954286D01*
X118959381Y-78859048D01*
X118959381Y-78620952D01*
X119007000Y-78525714D01*
X119054619Y-78478095D01*
X119149857Y-78430476D01*
X119245095Y-78430476D01*
X119387952Y-78478095D01*
X119959381Y-79049524D01*
X119959381Y-78430476D01*
X118959381Y-77811429D02*
X118959381Y-77716190D01*
X119007000Y-77620952D01*
X119054619Y-77573333D01*
X119149857Y-77525714D01*
X119340333Y-77478095D01*
X119578429Y-77478095D01*
X119768905Y-77525714D01*
X119864143Y-77573333D01*
X119911762Y-77620952D01*
X119959381Y-77716190D01*
X119959381Y-77811429D01*
X119911762Y-77906667D01*
X119864143Y-77954286D01*
X119768905Y-78001905D01*
X119578429Y-78049524D01*
X119340333Y-78049524D01*
X119149857Y-78001905D01*
X119054619Y-77954286D01*
X119007000Y-77906667D01*
X118959381Y-77811429D01*
X112392381Y-83954857D02*
X111916190Y-84288191D01*
X112392381Y-84526286D02*
X111392381Y-84526286D01*
X111392381Y-84145333D01*
X111440000Y-84050095D01*
X111487619Y-84002476D01*
X111582857Y-83954857D01*
X111725714Y-83954857D01*
X111820952Y-84002476D01*
X111868571Y-84050095D01*
X111916190Y-84145333D01*
X111916190Y-84526286D01*
X111487619Y-83573905D02*
X111440000Y-83526286D01*
X111392381Y-83431048D01*
X111392381Y-83192952D01*
X111440000Y-83097714D01*
X111487619Y-83050095D01*
X111582857Y-83002476D01*
X111678095Y-83002476D01*
X111820952Y-83050095D01*
X112392381Y-83621524D01*
X112392381Y-83002476D01*
X112392381Y-82050095D02*
X112392381Y-82621524D01*
X112392381Y-82335810D02*
X111392381Y-82335810D01*
X111535238Y-82431048D01*
X111630476Y-82526286D01*
X111678095Y-82621524D01*
X117419381Y-83954857D02*
X116943190Y-84288191D01*
X117419381Y-84526286D02*
X116419381Y-84526286D01*
X116419381Y-84145333D01*
X116467000Y-84050095D01*
X116514619Y-84002476D01*
X116609857Y-83954857D01*
X116752714Y-83954857D01*
X116847952Y-84002476D01*
X116895571Y-84050095D01*
X116943190Y-84145333D01*
X116943190Y-84526286D01*
X116514619Y-83573905D02*
X116467000Y-83526286D01*
X116419381Y-83431048D01*
X116419381Y-83192952D01*
X116467000Y-83097714D01*
X116514619Y-83050095D01*
X116609857Y-83002476D01*
X116705095Y-83002476D01*
X116847952Y-83050095D01*
X117419381Y-83621524D01*
X117419381Y-83002476D01*
X116752714Y-82145333D02*
X117419381Y-82145333D01*
X116371762Y-82383429D02*
X117086048Y-82621524D01*
X117086048Y-82002476D01*
X122552381Y-83700857D02*
X122076190Y-84034191D01*
X122552381Y-84272286D02*
X121552381Y-84272286D01*
X121552381Y-83891333D01*
X121600000Y-83796095D01*
X121647619Y-83748476D01*
X121742857Y-83700857D01*
X121885714Y-83700857D01*
X121980952Y-83748476D01*
X122028571Y-83796095D01*
X122076190Y-83891333D01*
X122076190Y-84272286D01*
X121647619Y-83319905D02*
X121600000Y-83272286D01*
X121552381Y-83177048D01*
X121552381Y-82938952D01*
X121600000Y-82843714D01*
X121647619Y-82796095D01*
X121742857Y-82748476D01*
X121838095Y-82748476D01*
X121980952Y-82796095D01*
X122552381Y-83367524D01*
X122552381Y-82748476D01*
X121552381Y-81843714D02*
X121552381Y-82319905D01*
X122028571Y-82367524D01*
X121980952Y-82319905D01*
X121933333Y-82224667D01*
X121933333Y-81986571D01*
X121980952Y-81891333D01*
X122028571Y-81843714D01*
X122123810Y-81796095D01*
X122361905Y-81796095D01*
X122457143Y-81843714D01*
X122504762Y-81891333D01*
X122552381Y-81986571D01*
X122552381Y-82224667D01*
X122504762Y-82319905D01*
X122457143Y-82367524D01*
X117419381Y-79255857D02*
X116943190Y-79589191D01*
X117419381Y-79827286D02*
X116419381Y-79827286D01*
X116419381Y-79446333D01*
X116467000Y-79351095D01*
X116514619Y-79303476D01*
X116609857Y-79255857D01*
X116752714Y-79255857D01*
X116847952Y-79303476D01*
X116895571Y-79351095D01*
X116943190Y-79446333D01*
X116943190Y-79827286D01*
X116514619Y-78874905D02*
X116467000Y-78827286D01*
X116419381Y-78732048D01*
X116419381Y-78493952D01*
X116467000Y-78398714D01*
X116514619Y-78351095D01*
X116609857Y-78303476D01*
X116705095Y-78303476D01*
X116847952Y-78351095D01*
X117419381Y-78922524D01*
X117419381Y-78303476D01*
X116419381Y-77446333D02*
X116419381Y-77636810D01*
X116467000Y-77732048D01*
X116514619Y-77779667D01*
X116657476Y-77874905D01*
X116847952Y-77922524D01*
X117228905Y-77922524D01*
X117324143Y-77874905D01*
X117371762Y-77827286D01*
X117419381Y-77732048D01*
X117419381Y-77541571D01*
X117371762Y-77446333D01*
X117324143Y-77398714D01*
X117228905Y-77351095D01*
X116990810Y-77351095D01*
X116895571Y-77398714D01*
X116847952Y-77446333D01*
X116800333Y-77541571D01*
X116800333Y-77732048D01*
X116847952Y-77827286D01*
X116895571Y-77874905D01*
X116990810Y-77922524D01*
X122552381Y-79382857D02*
X122076190Y-79716191D01*
X122552381Y-79954286D02*
X121552381Y-79954286D01*
X121552381Y-79573333D01*
X121600000Y-79478095D01*
X121647619Y-79430476D01*
X121742857Y-79382857D01*
X121885714Y-79382857D01*
X121980952Y-79430476D01*
X122028571Y-79478095D01*
X122076190Y-79573333D01*
X122076190Y-79954286D01*
X121647619Y-79001905D02*
X121600000Y-78954286D01*
X121552381Y-78859048D01*
X121552381Y-78620952D01*
X121600000Y-78525714D01*
X121647619Y-78478095D01*
X121742857Y-78430476D01*
X121838095Y-78430476D01*
X121980952Y-78478095D01*
X122552381Y-79049524D01*
X122552381Y-78430476D01*
X121552381Y-78097143D02*
X121552381Y-77430476D01*
X122552381Y-77859048D01*
X117472381Y-74302857D02*
X116996190Y-74636191D01*
X117472381Y-74874286D02*
X116472381Y-74874286D01*
X116472381Y-74493333D01*
X116520000Y-74398095D01*
X116567619Y-74350476D01*
X116662857Y-74302857D01*
X116805714Y-74302857D01*
X116900952Y-74350476D01*
X116948571Y-74398095D01*
X116996190Y-74493333D01*
X116996190Y-74874286D01*
X116567619Y-73921905D02*
X116520000Y-73874286D01*
X116472381Y-73779048D01*
X116472381Y-73540952D01*
X116520000Y-73445714D01*
X116567619Y-73398095D01*
X116662857Y-73350476D01*
X116758095Y-73350476D01*
X116900952Y-73398095D01*
X117472381Y-73969524D01*
X117472381Y-73350476D01*
X116900952Y-72779048D02*
X116853333Y-72874286D01*
X116805714Y-72921905D01*
X116710476Y-72969524D01*
X116662857Y-72969524D01*
X116567619Y-72921905D01*
X116520000Y-72874286D01*
X116472381Y-72779048D01*
X116472381Y-72588571D01*
X116520000Y-72493333D01*
X116567619Y-72445714D01*
X116662857Y-72398095D01*
X116710476Y-72398095D01*
X116805714Y-72445714D01*
X116853333Y-72493333D01*
X116900952Y-72588571D01*
X116900952Y-72779048D01*
X116948571Y-72874286D01*
X116996190Y-72921905D01*
X117091429Y-72969524D01*
X117281905Y-72969524D01*
X117377143Y-72921905D01*
X117424762Y-72874286D01*
X117472381Y-72779048D01*
X117472381Y-72588571D01*
X117424762Y-72493333D01*
X117377143Y-72445714D01*
X117281905Y-72398095D01*
X117091429Y-72398095D01*
X116996190Y-72445714D01*
X116948571Y-72493333D01*
X116900952Y-72588571D01*
X122192381Y-74302857D02*
X121716190Y-74636191D01*
X122192381Y-74874286D02*
X121192381Y-74874286D01*
X121192381Y-74493333D01*
X121240000Y-74398095D01*
X121287619Y-74350476D01*
X121382857Y-74302857D01*
X121525714Y-74302857D01*
X121620952Y-74350476D01*
X121668571Y-74398095D01*
X121716190Y-74493333D01*
X121716190Y-74874286D01*
X121287619Y-73921905D02*
X121240000Y-73874286D01*
X121192381Y-73779048D01*
X121192381Y-73540952D01*
X121240000Y-73445714D01*
X121287619Y-73398095D01*
X121382857Y-73350476D01*
X121478095Y-73350476D01*
X121620952Y-73398095D01*
X122192381Y-73969524D01*
X122192381Y-73350476D01*
X122192381Y-72874286D02*
X122192381Y-72683810D01*
X122144762Y-72588571D01*
X122097143Y-72540952D01*
X121954286Y-72445714D01*
X121763810Y-72398095D01*
X121382857Y-72398095D01*
X121287619Y-72445714D01*
X121240000Y-72493333D01*
X121192381Y-72588571D01*
X121192381Y-72779048D01*
X121240000Y-72874286D01*
X121287619Y-72921905D01*
X121382857Y-72969524D01*
X121620952Y-72969524D01*
X121716190Y-72921905D01*
X121763810Y-72874286D01*
X121811429Y-72779048D01*
X121811429Y-72588571D01*
X121763810Y-72493333D01*
X121716190Y-72445714D01*
X121620952Y-72398095D01*
X117292381Y-69476857D02*
X116816190Y-69810191D01*
X117292381Y-70048286D02*
X116292381Y-70048286D01*
X116292381Y-69667333D01*
X116340000Y-69572095D01*
X116387619Y-69524476D01*
X116482857Y-69476857D01*
X116625714Y-69476857D01*
X116720952Y-69524476D01*
X116768571Y-69572095D01*
X116816190Y-69667333D01*
X116816190Y-70048286D01*
X116292381Y-69143524D02*
X116292381Y-68524476D01*
X116673333Y-68857810D01*
X116673333Y-68714952D01*
X116720952Y-68619714D01*
X116768571Y-68572095D01*
X116863810Y-68524476D01*
X117101905Y-68524476D01*
X117197143Y-68572095D01*
X117244762Y-68619714D01*
X117292381Y-68714952D01*
X117292381Y-69000667D01*
X117244762Y-69095905D01*
X117197143Y-69143524D01*
X116292381Y-67905429D02*
X116292381Y-67810190D01*
X116340000Y-67714952D01*
X116387619Y-67667333D01*
X116482857Y-67619714D01*
X116673333Y-67572095D01*
X116911429Y-67572095D01*
X117101905Y-67619714D01*
X117197143Y-67667333D01*
X117244762Y-67714952D01*
X117292381Y-67810190D01*
X117292381Y-67905429D01*
X117244762Y-68000667D01*
X117197143Y-68048286D01*
X117101905Y-68095905D01*
X116911429Y-68143524D01*
X116673333Y-68143524D01*
X116482857Y-68095905D01*
X116387619Y-68048286D01*
X116340000Y-68000667D01*
X116292381Y-67905429D01*
X126745619Y-103219238D02*
X126698000Y-103314476D01*
X126602762Y-103409714D01*
X126459905Y-103552571D01*
X126412286Y-103647810D01*
X126412286Y-103743048D01*
X126650381Y-103695429D02*
X126602762Y-103790667D01*
X126507524Y-103885905D01*
X126317048Y-103933524D01*
X125983714Y-103933524D01*
X125793238Y-103885905D01*
X125698000Y-103790667D01*
X125650381Y-103695429D01*
X125650381Y-103504952D01*
X125698000Y-103409714D01*
X125793238Y-103314476D01*
X125983714Y-103266857D01*
X126317048Y-103266857D01*
X126507524Y-103314476D01*
X126602762Y-103409714D01*
X126650381Y-103504952D01*
X126650381Y-103695429D01*
X125650381Y-102409714D02*
X125650381Y-102600191D01*
X125698000Y-102695429D01*
X125745619Y-102743048D01*
X125888476Y-102838286D01*
X126078952Y-102885905D01*
X126459905Y-102885905D01*
X126555143Y-102838286D01*
X126602762Y-102790667D01*
X126650381Y-102695429D01*
X126650381Y-102504952D01*
X126602762Y-102409714D01*
X126555143Y-102362095D01*
X126459905Y-102314476D01*
X126221810Y-102314476D01*
X126126571Y-102362095D01*
X126078952Y-102409714D01*
X126031333Y-102504952D01*
X126031333Y-102695429D01*
X126078952Y-102790667D01*
X126126571Y-102838286D01*
X126221810Y-102885905D01*
X120414381Y-109481857D02*
X119938190Y-109815191D01*
X120414381Y-110053286D02*
X119414381Y-110053286D01*
X119414381Y-109672333D01*
X119462000Y-109577095D01*
X119509619Y-109529476D01*
X119604857Y-109481857D01*
X119747714Y-109481857D01*
X119842952Y-109529476D01*
X119890571Y-109577095D01*
X119938190Y-109672333D01*
X119938190Y-110053286D01*
X120414381Y-108529476D02*
X120414381Y-109100905D01*
X120414381Y-108815191D02*
X119414381Y-108815191D01*
X119557238Y-108910429D01*
X119652476Y-109005667D01*
X119700095Y-109100905D01*
X119509619Y-108148524D02*
X119462000Y-108100905D01*
X119414381Y-108005667D01*
X119414381Y-107767571D01*
X119462000Y-107672333D01*
X119509619Y-107624714D01*
X119604857Y-107577095D01*
X119700095Y-107577095D01*
X119842952Y-107624714D01*
X120414381Y-108196143D01*
X120414381Y-107577095D01*
M02*
