G04 #@! TF.FileFunction,Copper,L1,Top,Signal*
%FSLAX46Y46*%
G04 Gerber Fmt 4.6, Leading zero omitted, Abs format (unit mm)*
G04 Created by KiCad (PCBNEW 4.0.2-stable) date 01.03.2017 20:49:35*
%MOMM*%
G01*
G04 APERTURE LIST*
%ADD10C,0.100000*%
%ADD11R,2.032000X1.727200*%
%ADD12O,2.032000X1.727200*%
%ADD13R,1.727200X2.032000*%
%ADD14O,1.727200X2.032000*%
%ADD15R,2.032000X2.032000*%
%ADD16O,2.032000X2.032000*%
%ADD17R,2.235200X2.235200*%
%ADD18R,0.800100X0.800100*%
%ADD19O,1.473200X0.609600*%
%ADD20R,1.727200X1.727200*%
%ADD21O,1.727200X1.727200*%
%ADD22C,1.143000*%
%ADD23C,2.000000*%
%ADD24R,0.750000X1.200000*%
%ADD25R,0.900000X1.200000*%
%ADD26R,0.800000X0.900000*%
%ADD27R,1.800000X1.800000*%
%ADD28O,1.800000X1.800000*%
%ADD29C,0.600000*%
%ADD30C,0.250000*%
G04 APERTURE END LIST*
D10*
D11*
X107188000Y-71120000D03*
D12*
X107188000Y-73660000D03*
X107188000Y-76200000D03*
X107188000Y-78740000D03*
X107188000Y-81280000D03*
X107188000Y-83820000D03*
X107188000Y-86360000D03*
X107188000Y-88900000D03*
D11*
X107188000Y-98552000D03*
D12*
X107188000Y-96012000D03*
X107188000Y-93472000D03*
D13*
X137922000Y-112522000D03*
D14*
X140462000Y-112522000D03*
X143002000Y-112522000D03*
X145542000Y-112522000D03*
X148082000Y-112522000D03*
X150622000Y-112522000D03*
D13*
X116332000Y-112522000D03*
D14*
X118872000Y-112522000D03*
X121412000Y-112522000D03*
X123952000Y-112522000D03*
X126492000Y-112522000D03*
X129032000Y-112522000D03*
X131572000Y-112522000D03*
X134112000Y-112522000D03*
D13*
X134620000Y-67310000D03*
D14*
X132080000Y-67310000D03*
X129540000Y-67310000D03*
X127000000Y-67310000D03*
X124460000Y-67310000D03*
D15*
X109728000Y-112522000D03*
D16*
X112268000Y-112522000D03*
D17*
X140462000Y-108966000D03*
X150368000Y-109474000D03*
D18*
X133670000Y-74152760D03*
X135570000Y-74152760D03*
X134620000Y-72153780D03*
X129352000Y-74152760D03*
X131252000Y-74152760D03*
X130302000Y-72153780D03*
D19*
X120904000Y-98933000D03*
X120904000Y-97663000D03*
X120904000Y-96393000D03*
X120904000Y-95123000D03*
X115316000Y-95123000D03*
X115316000Y-96393000D03*
X115316000Y-97663000D03*
X115316000Y-98933000D03*
D20*
X151638000Y-69596000D03*
D21*
X151638000Y-72136000D03*
X149098000Y-69596000D03*
X149098000Y-72136000D03*
X146558000Y-69596000D03*
X146558000Y-72136000D03*
D22*
X128905000Y-102870000D03*
X126873000Y-78867000D03*
X137541000Y-76581000D03*
X131699000Y-78867000D03*
X126873000Y-76708000D03*
X131699000Y-76708000D03*
D23*
X146812000Y-106354000D03*
X146812000Y-101854000D03*
X153312000Y-106354000D03*
X153312000Y-101854000D03*
X146812000Y-91368000D03*
X146812000Y-86868000D03*
X153312000Y-91368000D03*
X153312000Y-86868000D03*
X146812000Y-98988000D03*
X146812000Y-94488000D03*
X153312000Y-98988000D03*
X153312000Y-94488000D03*
X146812000Y-83748000D03*
X146812000Y-79248000D03*
X153312000Y-83748000D03*
X153312000Y-79248000D03*
D24*
X113030000Y-84262000D03*
X113030000Y-82362000D03*
X123190000Y-82108000D03*
X123190000Y-84008000D03*
X113030000Y-79436000D03*
X113030000Y-77536000D03*
X123190000Y-77790000D03*
X123190000Y-79690000D03*
X113030000Y-72710000D03*
X113030000Y-74610000D03*
X120650000Y-67884000D03*
X120650000Y-69784000D03*
X113030000Y-67884000D03*
X113030000Y-69784000D03*
X126746000Y-72710000D03*
X126746000Y-74610000D03*
D25*
X123952000Y-109812000D03*
X123952000Y-107612000D03*
X126492000Y-109812000D03*
X126492000Y-107612000D03*
X129032000Y-109812000D03*
X129032000Y-107612000D03*
X134112000Y-109812000D03*
X134112000Y-107612000D03*
X110998000Y-98382000D03*
X110998000Y-96182000D03*
X133604000Y-78316000D03*
X133604000Y-76116000D03*
X129286000Y-78316000D03*
X129286000Y-76116000D03*
X110490000Y-69934000D03*
X110490000Y-67734000D03*
X118110000Y-69934000D03*
X118110000Y-67734000D03*
X110490000Y-74760000D03*
X110490000Y-72560000D03*
X118364000Y-74760000D03*
X118364000Y-72560000D03*
X110490000Y-77386000D03*
X110490000Y-79586000D03*
X118364000Y-79840000D03*
X118364000Y-77640000D03*
X110490000Y-82212000D03*
X110490000Y-84412000D03*
X115570000Y-84412000D03*
X115570000Y-82212000D03*
X120650000Y-81958000D03*
X120650000Y-84158000D03*
X115570000Y-79586000D03*
X115570000Y-77386000D03*
X120650000Y-77640000D03*
X120650000Y-79840000D03*
X115570000Y-72560000D03*
X115570000Y-74760000D03*
X123190000Y-74760000D03*
X123190000Y-72560000D03*
X115570000Y-67734000D03*
X115570000Y-69934000D03*
D26*
X124648000Y-102124000D03*
X122748000Y-102124000D03*
X123698000Y-104124000D03*
D27*
X116586000Y-105156000D03*
D28*
X114046000Y-105156000D03*
X111506000Y-105156000D03*
D25*
X121412000Y-109939000D03*
X121412000Y-107739000D03*
D29*
X136137800Y-87115500D03*
X134645900Y-84708500D03*
X135446300Y-84713600D03*
X123365000Y-80813300D03*
X138911700Y-94978000D03*
X131488500Y-94358100D03*
X130574300Y-77803000D03*
X113359500Y-76201600D03*
X128241000Y-90870500D03*
X126365000Y-92075000D03*
X126573700Y-95020900D03*
X122422900Y-103378500D03*
X129656800Y-81931800D03*
X133345100Y-83685000D03*
X129331600Y-90245100D03*
X129649500Y-98684200D03*
X135021500Y-95339000D03*
X135821900Y-95788400D03*
X136622200Y-95339000D03*
X127616900Y-94864000D03*
X126390700Y-93375900D03*
X130540500Y-93184900D03*
X133904300Y-98058900D03*
D30*
X113030000Y-69934000D02*
X115570000Y-69934000D01*
X113030000Y-69934000D02*
X113030000Y-69784000D01*
X110490000Y-69934000D02*
X111797500Y-69934000D01*
X111797500Y-69934000D02*
X113030000Y-69934000D01*
X150368000Y-72885300D02*
X136137800Y-87115500D01*
X150368000Y-71702700D02*
X150368000Y-72885300D01*
X149612300Y-70947000D02*
X150368000Y-71702700D01*
X143684600Y-70947000D02*
X149612300Y-70947000D01*
X138657300Y-65919700D02*
X143684600Y-70947000D01*
X113531400Y-65919700D02*
X138657300Y-65919700D01*
X111797500Y-67653600D02*
X113531400Y-65919700D01*
X111797500Y-69934000D02*
X111797500Y-67653600D01*
X120650000Y-69784000D02*
X120650000Y-70020000D01*
X120500000Y-69934000D02*
X120650000Y-69784000D01*
X118110000Y-69934000D02*
X120500000Y-69934000D01*
X123190000Y-71120000D02*
X123190000Y-72451500D01*
X121854000Y-69784000D02*
X123190000Y-71120000D01*
X120650000Y-69784000D02*
X121854000Y-69784000D01*
X123190000Y-72451500D02*
X123190000Y-72560000D01*
X133317900Y-84708500D02*
X134645900Y-84708500D01*
X127770000Y-79160600D02*
X133317900Y-84708500D01*
X127769900Y-79160600D02*
X127770000Y-79160600D01*
X127769900Y-78481100D02*
X127769900Y-79160600D01*
X127076300Y-77787500D02*
X127769900Y-78481100D01*
X126660000Y-77787500D02*
X127076300Y-77787500D01*
X124973800Y-76101300D02*
X126660000Y-77787500D01*
X124973800Y-74235300D02*
X124973800Y-76101300D01*
X123190000Y-72451500D02*
X124973800Y-74235300D01*
X113030000Y-74760000D02*
X113030000Y-74610000D01*
X110490000Y-74760000D02*
X113030000Y-74760000D01*
X113030000Y-74760000D02*
X115570000Y-74760000D01*
X115570000Y-74760000D02*
X116345300Y-74760000D01*
X135446300Y-84792500D02*
X135446300Y-84713600D01*
X134904300Y-85334500D02*
X135446300Y-84792500D01*
X132011400Y-85334500D02*
X134904300Y-85334500D01*
X124340800Y-77663900D02*
X132011400Y-85334500D01*
X124340800Y-76844500D02*
X124340800Y-77663900D01*
X123504200Y-76007900D02*
X124340800Y-76844500D01*
X122867200Y-76007900D02*
X123504200Y-76007900D01*
X120693900Y-73834600D02*
X122867200Y-76007900D01*
X117270700Y-73834600D02*
X120693900Y-73834600D01*
X116345300Y-74760000D02*
X117270700Y-73834600D01*
X120650000Y-79840000D02*
X122648600Y-79840000D01*
X123040000Y-79840000D02*
X123190000Y-79690000D01*
X122648600Y-79840000D02*
X123040000Y-79840000D01*
X120675400Y-74760000D02*
X118364000Y-74760000D01*
X122532900Y-76617500D02*
X120675400Y-74760000D01*
X123476900Y-76617500D02*
X122532900Y-76617500D01*
X123890300Y-77030900D02*
X123476900Y-76617500D01*
X123890300Y-79690000D02*
X123890300Y-77030900D01*
X123190000Y-79690000D02*
X123890300Y-79690000D01*
X123365000Y-80556400D02*
X123365000Y-80813300D01*
X122648600Y-79840000D02*
X123365000Y-80556400D01*
X139936000Y-94978000D02*
X138911700Y-94978000D01*
X146812000Y-101854000D02*
X139936000Y-94978000D01*
X113030000Y-77386000D02*
X113030000Y-77536000D01*
X153312000Y-101854000D02*
X146812000Y-101854000D01*
X110490000Y-77386000D02*
X113030000Y-77386000D01*
X113030000Y-77386000D02*
X115570000Y-77386000D01*
X115570000Y-77386000D02*
X116345300Y-77386000D01*
X117053100Y-76678200D02*
X116345300Y-77386000D01*
X118914300Y-76678200D02*
X117053100Y-76678200D01*
X119139400Y-76903300D02*
X118914300Y-76678200D01*
X119139400Y-78396400D02*
X119139400Y-76903300D01*
X118948300Y-78587500D02*
X119139400Y-78396400D01*
X118084600Y-78587500D02*
X118948300Y-78587500D01*
X117563600Y-79108500D02*
X118084600Y-78587500D01*
X117563600Y-80968200D02*
X117563600Y-79108500D01*
X117309400Y-81222400D02*
X117563600Y-80968200D01*
X109910800Y-81222400D02*
X117309400Y-81222400D01*
X109714600Y-81418600D02*
X109910800Y-81222400D01*
X109714600Y-82984700D02*
X109714600Y-81418600D01*
X110017300Y-83287400D02*
X109714600Y-82984700D01*
X116415800Y-83287400D02*
X110017300Y-83287400D01*
X124551400Y-91423000D02*
X116415800Y-83287400D01*
X126620500Y-91423000D02*
X124551400Y-91423000D01*
X130239900Y-95042400D02*
X126620500Y-91423000D01*
X133740800Y-95042400D02*
X130239900Y-95042400D01*
X134069500Y-94713700D02*
X133740800Y-95042400D01*
X138647400Y-94713700D02*
X134069500Y-94713700D01*
X138911700Y-94978000D02*
X138647400Y-94713700D01*
X120650000Y-84158000D02*
X120650000Y-84074000D01*
X118364000Y-81872000D02*
X120650000Y-84158000D01*
X118364000Y-79840000D02*
X118364000Y-81872000D01*
X120650000Y-84158000D02*
X121845000Y-84158000D01*
X123040000Y-84158000D02*
X123190000Y-84008000D01*
X121845000Y-84158000D02*
X123040000Y-84158000D01*
X138059800Y-86868000D02*
X146812000Y-86868000D01*
X131085000Y-93842800D02*
X138059800Y-86868000D01*
X130314100Y-93842800D02*
X131085000Y-93842800D01*
X121845000Y-85373700D02*
X130314100Y-93842800D01*
X121845000Y-84158000D02*
X121845000Y-85373700D01*
X146812000Y-86868000D02*
X153312000Y-86868000D01*
X112880000Y-82212000D02*
X113030000Y-82362000D01*
X110490000Y-82212000D02*
X112880000Y-82212000D01*
X153312000Y-94488000D02*
X146812000Y-94488000D01*
X113030000Y-82362000D02*
X115420000Y-82362000D01*
X115420000Y-82362000D02*
X115570000Y-82212000D01*
X130192500Y-94358100D02*
X131488500Y-94358100D01*
X126807100Y-90972700D02*
X130192500Y-94358100D01*
X125361200Y-90972700D02*
X126807100Y-90972700D01*
X116750500Y-82362000D02*
X125361200Y-90972700D01*
X115420000Y-82362000D02*
X116750500Y-82362000D01*
X131583200Y-94263400D02*
X131488500Y-94358100D01*
X146587400Y-94263400D02*
X131583200Y-94263400D01*
X146812000Y-94488000D02*
X146587400Y-94263400D01*
X107104000Y-71120000D02*
X106934000Y-70950000D01*
X106680000Y-71120000D02*
X107104000Y-71120000D01*
X107104000Y-71120000D02*
X110490000Y-67734000D01*
X107188000Y-71120000D02*
X107104000Y-71120000D01*
X106680000Y-73660000D02*
X106934000Y-73660000D01*
X108966000Y-71882000D02*
X107901000Y-72947000D01*
X108966000Y-71628000D02*
X108966000Y-71882000D01*
X116840000Y-71628000D02*
X108966000Y-71628000D01*
X116840000Y-67818000D02*
X116840000Y-71628000D01*
X116924000Y-67734000D02*
X116840000Y-67818000D01*
X118110000Y-67734000D02*
X116924000Y-67734000D01*
X107901000Y-72947000D02*
X107188000Y-73660000D01*
X107647000Y-72947000D02*
X106934000Y-73660000D01*
X107901000Y-72947000D02*
X107647000Y-72947000D01*
X106680000Y-76200000D02*
X106850000Y-76200000D01*
X108839000Y-74549000D02*
X107976200Y-75411800D01*
X108839000Y-73152000D02*
X108839000Y-74549000D01*
X109431000Y-72560000D02*
X108839000Y-73152000D01*
X110490000Y-72560000D02*
X109431000Y-72560000D01*
X107976200Y-75411800D02*
X107188000Y-76200000D01*
X107638200Y-75411800D02*
X106850000Y-76200000D01*
X107976200Y-75411800D02*
X107638200Y-75411800D01*
X106680000Y-78740000D02*
X106934000Y-78740000D01*
X106934000Y-78740000D02*
X107188000Y-78740000D01*
X118364000Y-72560000D02*
X117588700Y-72560000D01*
X116464100Y-73684600D02*
X117588700Y-72560000D01*
X110039700Y-73684600D02*
X116464100Y-73684600D01*
X109714600Y-74009700D02*
X110039700Y-73684600D01*
X109714600Y-75551200D02*
X109714600Y-74009700D01*
X107714700Y-77551100D02*
X109714600Y-75551200D01*
X107188000Y-77551100D02*
X107714700Y-77551100D01*
X107188000Y-78740000D02*
X107188000Y-77551100D01*
X110490000Y-79586000D02*
X109517000Y-79586000D01*
X109517000Y-79586000D02*
X107823000Y-81280000D01*
X107823000Y-81280000D02*
X107188000Y-81280000D01*
X107188000Y-81280000D02*
X106934000Y-81280000D01*
X106680000Y-81280000D02*
X106934000Y-81280000D01*
X106680000Y-83312000D02*
X106680000Y-83820000D01*
X109220000Y-81788000D02*
X107976200Y-83031800D01*
X109220000Y-80772000D02*
X109220000Y-81788000D01*
X117094000Y-80772000D02*
X109220000Y-80772000D01*
X117094000Y-77978000D02*
X117094000Y-80772000D01*
X117432000Y-77640000D02*
X117094000Y-77978000D01*
X118364000Y-77640000D02*
X117432000Y-77640000D01*
X107976200Y-83031800D02*
X107188000Y-83820000D01*
X106960200Y-83031800D02*
X106680000Y-83312000D01*
X107976200Y-83031800D02*
X106960200Y-83031800D01*
X106680000Y-86360000D02*
X107188000Y-86360000D01*
X108542000Y-86360000D02*
X110490000Y-84412000D01*
X107188000Y-86360000D02*
X108542000Y-86360000D01*
X107188000Y-98552000D02*
X108529300Y-98552000D01*
X108699300Y-98382000D02*
X110998000Y-98382000D01*
X108529300Y-98552000D02*
X108699300Y-98382000D01*
X112492300Y-97663000D02*
X115316000Y-97663000D01*
X111773300Y-98382000D02*
X112492300Y-97663000D01*
X110998000Y-98382000D02*
X111773300Y-98382000D01*
X107188000Y-96012000D02*
X108529300Y-96012000D01*
X108699300Y-96182000D02*
X110998000Y-96182000D01*
X108529300Y-96012000D02*
X108699300Y-96182000D01*
X114043100Y-96182000D02*
X114254100Y-96393000D01*
X110998000Y-96182000D02*
X114043100Y-96182000D01*
X115316000Y-96393000D02*
X114254100Y-96393000D01*
X120566000Y-77724000D02*
X120650000Y-77640000D01*
X120566000Y-77724000D02*
X120650000Y-77640000D01*
X115453000Y-79469000D02*
X115570000Y-79586000D01*
X120650000Y-67884000D02*
X119949700Y-67884000D01*
X115420000Y-67884000D02*
X115570000Y-67734000D01*
X115570000Y-67734000D02*
X116345300Y-67734000D01*
X115486000Y-79502000D02*
X115486000Y-79078000D01*
X115453000Y-79469000D02*
X115486000Y-79502000D01*
X153312000Y-83748000D02*
X146812000Y-83748000D01*
X153312000Y-98988000D02*
X146812000Y-98988000D01*
X153312000Y-91368000D02*
X146812000Y-91368000D01*
X114046000Y-105156000D02*
X115271300Y-105156000D01*
X122748000Y-102124000D02*
X122748000Y-101348700D01*
X123040000Y-81958000D02*
X123190000Y-82108000D01*
X120650000Y-81958000D02*
X123040000Y-81958000D01*
X120828300Y-97663000D02*
X120904000Y-97663000D01*
X119841800Y-98649500D02*
X120828300Y-97663000D01*
X119841800Y-101348700D02*
X119841800Y-98649500D01*
X118083000Y-101348700D02*
X119841800Y-101348700D01*
X115271300Y-104160400D02*
X118083000Y-101348700D01*
X115271300Y-105156000D02*
X115271300Y-104160400D01*
X119841800Y-101348700D02*
X122748000Y-101348700D01*
X113030000Y-67884000D02*
X115420000Y-67884000D01*
X115420000Y-72710000D02*
X115570000Y-72560000D01*
X113030000Y-72710000D02*
X115420000Y-72710000D01*
X119380000Y-78910000D02*
X120566000Y-77724000D01*
X119380000Y-81534000D02*
X119380000Y-78910000D01*
X119804000Y-81958000D02*
X119380000Y-81534000D01*
X120650000Y-81958000D02*
X119804000Y-81958000D01*
X113030000Y-79436000D02*
X113105000Y-79436000D01*
X115420000Y-79436000D02*
X115453000Y-79469000D01*
X113105000Y-79436000D02*
X115420000Y-79436000D01*
X115420000Y-84262000D02*
X115570000Y-84412000D01*
X113030000Y-84262000D02*
X115420000Y-84262000D01*
X120909700Y-77640000D02*
X120650000Y-77640000D01*
X121836000Y-77640000D02*
X120909700Y-77640000D01*
X121920000Y-77724000D02*
X121836000Y-77640000D01*
X123124000Y-77724000D02*
X121920000Y-77724000D01*
X123190000Y-77790000D02*
X123124000Y-77724000D01*
X143352300Y-74152800D02*
X145369100Y-72136000D01*
X135570000Y-74152800D02*
X143352300Y-74152800D01*
X146558000Y-72136000D02*
X145369100Y-72136000D01*
X108529300Y-88062400D02*
X112329700Y-84262000D01*
X113030000Y-84262000D02*
X112329700Y-84262000D01*
X107188000Y-88900000D02*
X108529300Y-88900000D01*
X108529300Y-88900000D02*
X108529300Y-88062400D01*
X119471300Y-76201600D02*
X113359500Y-76201600D01*
X120909700Y-77640000D02*
X119471300Y-76201600D01*
X112329600Y-78660600D02*
X113105000Y-79436000D01*
X110204900Y-78660600D02*
X112329600Y-78660600D01*
X109714600Y-78170300D02*
X110204900Y-78660600D01*
X109714600Y-76644700D02*
X109714600Y-78170300D01*
X110157700Y-76201600D02*
X109714600Y-76644700D01*
X113359500Y-76201600D02*
X110157700Y-76201600D01*
X131252000Y-74515400D02*
X131252000Y-74878100D01*
X135570000Y-74152800D02*
X134844700Y-74152800D01*
X129286000Y-78316000D02*
X130061300Y-78316000D01*
X130574300Y-77803000D02*
X130061300Y-78316000D01*
X133604000Y-78316000D02*
X132828700Y-78316000D01*
X130743700Y-75386400D02*
X130743700Y-77604900D01*
X131252000Y-74878100D02*
X130743700Y-75386400D01*
X130574300Y-77774300D02*
X130743700Y-77604900D01*
X130574300Y-77803000D02*
X130574300Y-77774300D01*
X132117600Y-77604900D02*
X132828700Y-78316000D01*
X130743700Y-77604900D02*
X132117600Y-77604900D01*
X153312000Y-106354000D02*
X146812000Y-106354000D01*
X139110900Y-113042100D02*
X139110900Y-112522000D01*
X139979900Y-113911100D02*
X139110900Y-113042100D01*
X140929100Y-113911100D02*
X139979900Y-113911100D01*
X141732000Y-113108200D02*
X140929100Y-113911100D01*
X141732000Y-111434000D02*
X141732000Y-113108200D01*
X146812000Y-106354000D02*
X141732000Y-111434000D01*
X137922000Y-112522000D02*
X139110900Y-112522000D01*
X128677100Y-73379200D02*
X127446300Y-74610000D01*
X129843800Y-73379200D02*
X128677100Y-73379200D01*
X130526700Y-74062100D02*
X129843800Y-73379200D01*
X130526700Y-74152800D02*
X130526700Y-74062100D01*
X131252000Y-74152800D02*
X130526700Y-74152800D01*
X126746000Y-74610000D02*
X127096200Y-74610000D01*
X127096200Y-74610000D02*
X127446300Y-74610000D01*
X123740100Y-70273800D02*
X121350300Y-67884000D01*
X123740100Y-71253900D02*
X123740100Y-70273800D01*
X127096200Y-74610000D02*
X123740100Y-71253900D01*
X120650000Y-67884000D02*
X121350300Y-67884000D01*
X134844700Y-74062100D02*
X134844700Y-74152800D01*
X134209900Y-73427300D02*
X134844700Y-74062100D01*
X132702900Y-73427300D02*
X134209900Y-73427300D01*
X131977400Y-74152800D02*
X132702900Y-73427300D01*
X131252000Y-74515400D02*
X131252000Y-74152800D01*
X131252000Y-74152800D02*
X131977400Y-74152800D01*
X119412000Y-67480700D02*
X119412000Y-67884000D01*
X118739900Y-66808600D02*
X119412000Y-67480700D01*
X117173800Y-66808600D02*
X118739900Y-66808600D01*
X116345300Y-67637100D02*
X117173800Y-66808600D01*
X116345300Y-67734000D02*
X116345300Y-67637100D01*
X119412000Y-67884000D02*
X119949700Y-67884000D01*
X123190000Y-74760000D02*
X122414700Y-74760000D01*
X119272900Y-71618200D02*
X122414700Y-74760000D01*
X117295100Y-71618200D02*
X119272900Y-71618200D01*
X117295100Y-69189800D02*
X117295100Y-71618200D01*
X117825500Y-68659400D02*
X117295100Y-69189800D01*
X118771000Y-68659400D02*
X117825500Y-68659400D01*
X119412000Y-68018400D02*
X118771000Y-68659400D01*
X119412000Y-67884000D02*
X119412000Y-68018400D01*
X116580400Y-72560000D02*
X115570000Y-72560000D01*
X117295100Y-71845300D02*
X116580400Y-72560000D01*
X117295100Y-71618200D02*
X117295100Y-71845300D01*
X153312000Y-79248000D02*
X146812000Y-79248000D01*
X140462000Y-108966000D02*
X140462000Y-112522000D01*
X111506000Y-105156000D02*
X112068800Y-105156000D01*
X121412000Y-112522000D02*
X120223100Y-112522000D01*
X114535500Y-107622700D02*
X112078400Y-105165600D01*
X114535500Y-113100500D02*
X114535500Y-107622700D01*
X115345600Y-113910600D02*
X114535500Y-113100500D01*
X119354600Y-113910600D02*
X115345600Y-113910600D01*
X120223100Y-113042100D02*
X119354600Y-113910600D01*
X120223100Y-112522000D02*
X120223100Y-113042100D01*
X112078400Y-105165600D02*
X112068800Y-105156000D01*
X120851000Y-96393000D02*
X120904000Y-96393000D01*
X112078400Y-105165600D02*
X120851000Y-96393000D01*
X149098000Y-72136000D02*
X147909100Y-72136000D01*
X147909100Y-73842500D02*
X147909100Y-72136000D01*
X130881100Y-90870500D02*
X147909100Y-73842500D01*
X128241000Y-90870500D02*
X130881100Y-90870500D01*
X123952000Y-109812000D02*
X123952000Y-112522000D01*
X126492000Y-109812000D02*
X126492000Y-112522000D01*
X129032000Y-109812000D02*
X129032000Y-112522000D01*
X134112000Y-109812000D02*
X134112000Y-112522000D01*
X121412000Y-107739000D02*
X121412000Y-107569000D01*
X121412000Y-107569000D02*
X123698000Y-105283000D01*
X123698000Y-105283000D02*
X125222000Y-105283000D01*
X125222000Y-105283000D02*
X125222000Y-103251000D01*
X125222000Y-103251000D02*
X124968000Y-102997000D01*
X124968000Y-102997000D02*
X123698000Y-102997000D01*
X123698000Y-102997000D02*
X123698000Y-100711000D01*
X123698000Y-100711000D02*
X129032000Y-95377000D01*
X129032000Y-95377000D02*
X129032000Y-94742000D01*
X129032000Y-94742000D02*
X126365000Y-92075000D01*
X116746900Y-98933000D02*
X115316000Y-98933000D01*
X119921900Y-95758000D02*
X116746900Y-98933000D01*
X125836600Y-95758000D02*
X119921900Y-95758000D01*
X126573700Y-95020900D02*
X125836600Y-95758000D01*
X116586000Y-105156000D02*
X117811300Y-105156000D01*
X119588800Y-103378500D02*
X122422900Y-103378500D01*
X117811300Y-105156000D02*
X119588800Y-103378500D01*
X126873000Y-79148000D02*
X129656800Y-81931800D01*
X126873000Y-78867000D02*
X126873000Y-79148000D01*
X129352000Y-74152800D02*
X129352000Y-74878100D01*
X129286000Y-74944100D02*
X129286000Y-76116000D01*
X129352000Y-74878100D02*
X129286000Y-74944100D01*
X129286000Y-76116000D02*
X128510700Y-76116000D01*
X128252900Y-76708000D02*
X126873000Y-76708000D01*
X128252900Y-76373800D02*
X128252900Y-76708000D01*
X128510700Y-76116000D02*
X128252900Y-76373800D01*
X133345100Y-83684900D02*
X133345100Y-83685000D01*
X133076000Y-83684900D02*
X133345100Y-83684900D01*
X128252900Y-78861800D02*
X133076000Y-83684900D01*
X128252900Y-76708000D02*
X128252900Y-78861800D01*
X133410200Y-76116000D02*
X133313300Y-76116000D01*
X132291000Y-76116000D02*
X131699000Y-76708000D01*
X133313300Y-76116000D02*
X132291000Y-76116000D01*
X133313300Y-75234800D02*
X133670000Y-74878100D01*
X133313300Y-76116000D02*
X133313300Y-75234800D01*
X133670000Y-74152800D02*
X133670000Y-74878100D01*
X133410200Y-76116000D02*
X133604000Y-76116000D01*
X130849900Y-90245100D02*
X129331600Y-90245100D01*
X136073600Y-85021400D02*
X130849900Y-90245100D01*
X136073600Y-77810300D02*
X136073600Y-85021400D01*
X134379300Y-76116000D02*
X136073600Y-77810300D01*
X133604000Y-76116000D02*
X134379300Y-76116000D01*
X127122000Y-101211700D02*
X129649500Y-98684200D01*
X127122000Y-105217300D02*
X127122000Y-101211700D01*
X124727300Y-107612000D02*
X127122000Y-105217300D01*
X123952000Y-107612000D02*
X124727300Y-107612000D01*
X126492000Y-107612000D02*
X127267300Y-107612000D01*
X135021500Y-99857800D02*
X127267300Y-107612000D01*
X135021500Y-95339000D02*
X135021500Y-99857800D01*
X135821900Y-101597400D02*
X135821900Y-95788400D01*
X129807300Y-107612000D02*
X135821900Y-101597400D01*
X129032000Y-107612000D02*
X129807300Y-107612000D01*
X134112000Y-107612000D02*
X134887300Y-107612000D01*
X136622200Y-105877100D02*
X136622200Y-95339000D01*
X134887300Y-107612000D02*
X136622200Y-105877100D01*
X123547900Y-98933000D02*
X127616900Y-94864000D01*
X120904000Y-98933000D02*
X123547900Y-98933000D01*
X124643600Y-95123000D02*
X126390700Y-93375900D01*
X120904000Y-95123000D02*
X124643600Y-95123000D01*
X151638000Y-69596000D02*
X151638000Y-70784900D01*
X152009600Y-70784900D02*
X151638000Y-70784900D01*
X152826900Y-71602200D02*
X152009600Y-70784900D01*
X152826900Y-72678500D02*
X152826900Y-71602200D01*
X152130300Y-73375100D02*
X152826900Y-72678500D01*
X150762600Y-73375100D02*
X152130300Y-73375100D01*
X130952800Y-93184900D02*
X150762600Y-73375100D01*
X130540500Y-93184900D02*
X130952800Y-93184900D01*
X127000000Y-70739000D02*
X127000000Y-67310000D01*
X127127000Y-70866000D02*
X127000000Y-70739000D01*
X131699000Y-70866000D02*
X127127000Y-70866000D01*
X132987000Y-72153800D02*
X131699000Y-70866000D01*
X134620000Y-72153800D02*
X132987000Y-72153800D01*
X129746000Y-72710000D02*
X130302000Y-72153800D01*
X126746000Y-72710000D02*
X129746000Y-72710000D01*
X124460000Y-70424000D02*
X126746000Y-72710000D01*
X124460000Y-67310000D02*
X124460000Y-70424000D01*
X124648000Y-102124000D02*
X125373300Y-102124000D01*
X129309700Y-98058900D02*
X133904300Y-98058900D01*
X125373300Y-101995300D02*
X129309700Y-98058900D01*
X125373300Y-102124000D02*
X125373300Y-101995300D01*
X116332000Y-110764700D02*
X116332000Y-112522000D01*
X122972700Y-104124000D02*
X116332000Y-110764700D01*
X123698000Y-104124000D02*
X122972700Y-104124000D01*
X118872000Y-112522000D02*
X118872000Y-112479000D01*
X118872000Y-112479000D02*
X121412000Y-109939000D01*
M02*
